<svg width="35" height="27" viewBox="0 0 35 27" fill="none" xmlns="http://www.w3.org/2000/svg">
<path d="M18.4076 10.5806C18.4065 10.8087 18.3337 11.025 18.2981 11.2472C18.2415 11.6035 18.1695 11.9578 18.0981 12.3116C17.9993 12.8016 17.8944 13.2902 17.7938 13.7799C17.698 14.2479 17.6129 14.7182 17.5064 15.1834C17.4504 15.4288 17.4397 15.684 17.3525 15.9226C16.1457 15.7622 14.9391 15.601 13.732 15.4434C13.6531 15.4329 13.6156 15.4019 13.5922 15.3257C13.4277 14.7888 13.1649 14.3041 12.7914 13.8837C11.9846 12.9749 10.9693 12.4996 9.75266 12.5027C8.36267 12.5065 7.26067 13.0979 6.45718 14.2222C6.331 14.3985 6.22561 14.4497 6.01376 14.4192C4.86864 14.2539 3.72112 14.1065 2.57445 13.9528C2.57569 13.8781 2.57339 13.8024 2.5783 13.7278C2.60583 13.3078 2.63652 12.8882 2.66264 12.4685C2.69663 11.9174 2.72342 11.3653 2.76102 10.8148C2.7921 10.3578 2.81097 9.89966 2.86025 9.44376C2.88923 9.17461 2.90734 8.90447 2.93131 8.63511C2.93441 8.59809 2.94522 8.56164 2.95243 8.52471C2.95159 8.56203 2.95299 8.59965 2.94944 8.63661C2.93327 8.79242 2.93282 8.79236 3.09356 8.81423C3.10482 8.81573 3.11609 8.81723 3.12735 8.81873C8.14379 9.48707 13.1602 10.1554 18.1767 10.8238C18.2104 10.8283 18.2445 10.831 18.2781 10.8364C18.3342 10.8457 18.3614 10.8237 18.3704 10.7669C18.3805 10.7044 18.3778 10.6387 18.4077 10.5797L18.4076 10.5806Z" fill="#7C4028"/>
<path d="M15.8759 23.0898C15.7949 23.546 15.6931 23.9976 15.5841 24.4474C15.429 25.0883 15.2573 25.7237 14.9917 26.3302C14.9871 26.3406 14.983 26.351 14.9784 26.3613C14.8339 26.6822 14.8116 26.6943 14.468 26.6485C10.5132 26.1216 6.55841 25.5947 2.60318 25.0678C2.56985 25.0633 2.53559 25.0624 2.50196 25.0602C2.44672 25.0241 2.38553 25.0739 2.32624 25.0441C2.22451 24.9922 2.18782 24.9029 2.16283 24.8014C2.0711 24.4267 2.05761 24.0427 2.04523 23.6608C2.02117 22.902 2.05522 22.1442 2.10751 21.3869C2.11076 21.3385 2.12262 21.2907 2.13036 21.2429C2.16775 21.2479 2.20501 21.2538 2.2424 21.2588C6.72418 21.8559 11.2055 22.4529 15.6872 23.0505C15.7507 23.0589 15.8157 23.0603 15.8751 23.0892L15.8759 23.0898Z" fill="#CD8537"/>
<path d="M15.8759 23.0898C15.8164 23.0613 15.7516 23.0595 15.6881 23.0511C11.2063 22.4539 6.72497 21.8569 2.24325 21.2593C2.20586 21.2544 2.16854 21.2489 2.13121 21.2435C2.1315 20.8938 2.16265 20.5465 2.1839 20.1977C2.22258 19.5564 2.24216 18.914 2.29667 18.2743C2.32965 17.8856 2.32952 17.4944 2.38656 17.1075C2.42013 17.1102 2.45433 17.1115 2.48812 17.116C3.57816 17.2613 4.66802 17.4078 5.75899 17.5495C5.85673 17.5626 5.89588 17.6025 5.92738 17.6929C6.44046 19.1752 7.46264 20.1085 9.0054 20.4204C10.6392 20.7508 12.2537 20.036 13.1514 18.6344C13.1948 18.5671 13.2375 18.5459 13.3162 18.5568C13.7617 18.6198 14.2075 18.6765 14.6533 18.7368C15.3388 18.829 16.0241 18.9217 16.7095 19.0144C16.6866 19.2241 16.6338 19.428 16.5921 19.6343C16.4775 20.202 16.3665 20.7702 16.2488 21.337C16.1278 21.9217 16.001 22.5056 15.8764 23.0898L15.8759 23.0898Z" fill="#7C4028"/>
<path d="M18.4076 10.5806C18.3777 10.6396 18.3804 10.7053 18.3702 10.7678C18.3608 10.8246 18.3336 10.8465 18.278 10.8373C18.2443 10.8319 18.2103 10.8292 18.1765 10.8247C13.1601 10.1563 8.14366 9.48798 3.12722 8.81964C3.11596 8.81814 3.1047 8.81664 3.09344 8.81514C2.93264 8.79372 2.93309 8.79378 2.94932 8.63752C2.95332 8.60062 2.95147 8.56294 2.95231 8.52561C2.98351 8.29146 3.01522 8.05691 3.04686 7.82282C3.07808 7.71924 3.08915 7.61206 3.09887 7.5047C3.15619 7.1261 3.24552 6.75497 3.35314 6.38764C3.42448 6.39578 3.49595 6.40302 3.56712 6.4125C8.44167 7.06194 13.3162 7.71137 18.1908 8.36081C18.3219 8.37827 18.4528 8.39708 18.5837 8.41544C18.5831 8.81939 18.5751 9.22328 18.5253 9.62433C18.5079 9.71013 18.4919 9.7961 18.4984 9.88463C18.4675 10.117 18.4375 10.349 18.4065 10.5814L18.4076 10.5806Z" fill="#CD8537"/>
<path d="M16.7086 19.0143C16.0232 18.9216 15.3379 18.8289 14.6524 18.7367C14.2066 18.6768 13.7608 18.6197 13.3153 18.5567C13.2366 18.5458 13.1934 18.5669 13.1505 18.6343C12.2528 20.0358 10.6383 20.7507 9.00449 20.4203C7.46173 20.1084 6.43955 19.1751 5.92647 17.6928C5.89503 17.6019 5.85588 17.562 5.75808 17.5494C4.66756 17.4078 3.5777 17.2612 2.48721 17.1159C2.45343 17.1114 2.41968 17.1101 2.38566 17.1074C2.3627 16.9459 2.39272 16.786 2.40216 16.6257C2.45289 15.7563 2.50857 14.8877 2.56289 14.0188C2.56447 13.9966 2.57061 13.9746 2.5745 13.9523C3.72118 14.106 4.86869 14.2534 6.01381 14.4188C6.22566 14.4493 6.33105 14.398 6.45723 14.2217C7.26021 13.0979 8.36272 12.5061 9.75272 12.5023C10.9693 12.4991 11.9847 12.9741 12.7915 13.8832C13.1649 14.3041 13.4281 14.7889 13.5923 15.3253C13.6155 15.4019 13.6531 15.4329 13.732 15.443C14.9391 15.601 16.1457 15.7622 17.3525 15.9221C17.2466 16.4453 17.1415 16.9691 17.0343 17.4922C16.9384 17.9602 16.8408 18.4279 16.7441 18.8957C16.7355 18.9361 16.7336 18.9783 16.7083 19.0133L16.7086 19.0143ZM13.1055 16.9692C13.4005 15.1271 12.0429 13.4082 10.2342 13.1513C8.3608 12.8852 6.6757 14.2198 6.40586 15.963C6.11109 17.8658 7.44359 19.5942 9.29153 19.8486C11.1588 20.1056 12.8891 18.7793 13.1055 16.9692Z" fill="#E9BB8D"/>
<path d="M18.5843 8.41459C18.4533 8.39623 18.3224 8.37742 18.1914 8.35996C13.3168 7.71052 8.44224 7.06109 3.56769 6.41165C3.49652 6.40217 3.42505 6.39493 3.35371 6.38679C3.22686 6.36853 3.10002 6.35026 2.9733 6.33109C2.83937 6.31096 2.71953 6.26076 2.62243 6.16382C2.53695 6.07938 2.49818 5.98154 2.51552 5.85831C2.56185 5.53121 2.60328 5.203 2.64646 4.87548C2.6865 4.57494 2.8376 4.44898 3.14877 4.45665C3.16078 4.45597 3.17273 4.45573 3.18474 4.45505C3.20095 4.45721 3.21672 4.45931 3.23293 4.46147C3.24516 4.47634 3.25913 4.4782 3.27482 4.46705C3.4032 4.48416 3.53202 4.50132 3.66039 4.51842C3.66715 4.51932 3.67345 4.52016 3.68021 4.52106C3.7185 4.52616 3.75639 4.53076 3.79474 4.53541C3.80742 4.55034 3.82138 4.5522 3.83753 4.54111C3.85404 4.54103 3.8705 4.54139 3.88656 4.54125C8.77328 5.19231 13.66 5.84336 18.5467 6.49442C18.5626 6.49882 18.5782 6.50272 18.5941 6.50712C18.6013 6.50808 18.608 6.50898 18.6152 6.50994C18.8213 6.53602 19.0296 6.5519 19.2333 6.59138C19.4514 6.63367 19.6332 6.73505 19.6808 6.98015C19.6322 7.33755 19.5837 7.69539 19.5356 8.05284C19.5 8.32019 19.3631 8.44897 19.0897 8.46458C18.9188 8.47422 18.7529 8.42519 18.5834 8.41402L18.5843 8.41459Z" fill="#E5E6E7"/>
<path d="M18.5476 6.49498C13.6608 5.84392 8.77412 5.19286 3.88741 4.54181C3.91249 4.3639 3.93807 4.18561 3.96315 4.00771C4.00658 3.69894 4.21453 3.53855 4.52307 3.57966C4.82891 3.62041 5.13452 3.66295 5.44018 3.70504C5.42901 3.84736 5.45687 3.88257 5.60416 3.9022C6.47703 4.01895 7.35003 4.1348 8.22296 4.2511C8.33917 4.26658 8.45538 4.28207 8.57126 4.29659C8.61636 4.30214 8.67801 4.31081 8.69309 4.26306C8.73447 4.13481 8.82682 4.16766 8.91511 4.17942C11.9384 4.58221 14.9617 4.985 17.985 5.38735C18.0449 5.39533 18.105 5.39832 18.1653 5.40361C18.1904 5.39781 18.2143 5.40099 18.2369 5.41315C18.2874 5.47511 18.3688 5.46587 18.4325 5.49673C18.5941 5.60181 18.6351 5.75838 18.616 5.93662C18.5962 6.12299 18.5701 6.30852 18.5467 6.49486L18.5476 6.49498Z" fill="#CFD1D3"/>
<path d="M18.1662 5.40374C18.1059 5.39845 18.0458 5.39546 17.9859 5.38748C14.9626 4.98469 11.9393 4.5819 8.916 4.17955C8.82772 4.16779 8.73537 4.13494 8.69398 4.2632C8.67846 4.31089 8.61732 4.30183 8.57216 4.29673C8.45577 4.28259 8.33962 4.26666 8.22386 4.25124C7.35092 4.13493 6.47799 4.01863 5.60506 3.90233C5.45731 3.88265 5.42946 3.84744 5.44108 3.70518C5.48856 3.6275 5.47397 3.53744 5.49061 3.45383C5.50548 3.38003 5.54036 3.35226 5.61693 3.36246C6.23861 3.44803 6.86105 3.53141 7.48303 3.61474C7.53708 3.62194 7.58577 3.63847 7.58169 3.70001C7.57628 3.77508 7.62541 3.78482 7.67703 3.79991C7.98537 3.89076 8.29832 3.9676 8.5994 4.07848C8.81618 4.15804 9.03767 4.18161 9.26018 4.21126C12.1801 4.60165 15.1008 4.99031 18.0209 5.37936C18.0696 5.38584 18.1178 5.39546 18.1662 5.40374Z" fill="#E5E6E7"/>
<path d="M18.4334 5.49731C18.3697 5.46645 18.2881 5.47613 18.2378 5.41372C18.3114 5.42171 18.3804 5.44094 18.4334 5.49731Z" fill="#E5E6E7"/>
<path d="M3.09944 7.50384C3.08928 7.61114 3.07871 7.71793 3.04743 7.82197C3.0464 7.71272 3.05922 7.60622 3.09944 7.50384Z" fill="#7C4028"/>
<path d="M3.27572 4.46717C3.26003 4.47832 3.24606 4.47645 3.23383 4.46159C3.2478 4.46345 3.26176 4.46531 3.27572 4.46717Z" fill="#CFD1D3"/>
<path d="M3.83842 4.54123C3.82234 4.55187 3.80792 4.54995 3.79563 4.53553C3.81005 4.53745 3.82446 4.53937 3.83842 4.54123Z" fill="#CFD1D3"/>
<path d="M3.67964 4.52032C3.67326 4.51947 3.6673 4.51868 3.66092 4.51783C3.66792 4.51402 3.67388 4.51481 3.67964 4.52032Z" fill="#CFD1D3"/>
<path d="M18.6154 6.50975C18.6086 6.50885 18.6023 6.508 18.5954 6.50709C18.6029 6.50334 18.6093 6.50376 18.6154 6.50975Z" fill="#CFD1D3"/>
<path d="M18.499 9.88379C18.4925 9.79526 18.5085 9.70929 18.5259 9.62349C18.5393 9.71247 18.5282 9.7991 18.499 9.88379Z" fill="#7C4028"/>
<path d="M12.5892 15.6527C12.5928 15.6532 12.5968 15.6537 12.6004 15.6542L12.6 15.6541C12.6013 15.6543 12.6021 15.6553 12.6028 15.6568C12.608 15.6662 12.6122 15.6759 12.6179 15.6848C12.6412 15.7235 12.6437 15.7631 12.6134 15.7975C12.5784 15.8371 12.5412 15.875 12.5057 15.9146C12.4642 15.9611 12.4152 16.0016 12.3754 16.0493C12.3114 16.127 12.2365 16.1937 12.1713 16.2704C12.11 16.3421 12.0441 16.4096 11.9799 16.4787C11.9451 16.5165 11.9074 16.5516 11.8718 16.5884C11.8323 16.6298 11.7937 16.6721 11.7525 16.7127C11.7055 16.7594 11.6657 16.8139 11.6169 16.8599C11.5733 16.9016 11.5388 16.9509 11.5229 17.0081C11.5079 17.0622 11.5003 17.1192 11.4924 17.1752C11.4505 17.4723 11.4168 17.7705 11.3664 18.066C11.3404 18.2201 11.3323 18.3769 11.2972 18.5302C11.284 18.5878 11.214 18.6214 11.1586 18.5971C11.091 18.5676 11.0265 18.5321 10.958 18.5028C10.8317 18.449 10.7095 18.3857 10.5854 18.3263C10.5354 18.3023 10.4858 18.2756 10.4354 18.2547C10.3742 18.2292 10.3147 18.2007 10.2542 18.1731C10.2028 18.1493 10.1523 18.122 10.1001 18.1009C10.021 18.0685 9.94673 18.0275 9.8687 17.9939C9.82533 17.9753 9.78109 17.9598 9.73445 17.9486C9.64072 17.9261 9.55409 17.9638 9.4645 17.9756C9.40295 17.9834 9.34078 17.9925 9.27968 18.0072C9.21385 18.023 9.14449 18.0275 9.0776 18.0409C9.0093 18.0547 8.93997 18.0623 8.87179 18.0752C8.7523 18.098 8.632 18.1167 8.5123 18.1377C8.39683 18.158 8.28049 18.1744 8.16557 18.1975C8.09823 18.2109 8.04505 18.1627 8.05182 18.0947C8.06113 18.0041 8.07591 17.9139 8.08296 17.8231C8.09354 17.6921 8.11318 17.5618 8.12781 17.4314C8.15289 17.2087 8.18568 16.9867 8.21437 16.7645C8.22058 16.7179 8.21515 16.6692 8.22767 16.6234C8.24256 16.5701 8.23303 16.5177 8.21253 16.4721C8.16824 16.3744 8.11857 16.2792 8.06495 16.1863C8.02656 16.12 7.99168 16.0514 7.95573 15.9841C7.91899 15.9157 7.88175 15.8478 7.84795 15.778C7.81855 15.7165 7.78728 15.6553 7.75142 15.5976C7.72197 15.5503 7.70473 15.4973 7.67482 15.4499C7.63878 15.3935 7.61079 15.3318 7.57929 15.2724C7.55623 15.2287 7.53566 15.1835 7.5096 15.1417C7.46139 15.0631 7.50065 14.999 7.5682 14.9874C7.64377 14.9742 7.71798 14.954 7.79448 14.9441C7.92373 14.927 8.04892 14.8889 8.17835 14.8706C8.2377 14.862 8.29522 14.8432 8.35437 14.8328C8.44308 14.8173 8.53147 14.8007 8.61986 14.7842C8.72139 14.7653 8.82314 14.7483 8.92374 14.7261C8.99222 14.711 9.06407 14.7051 9.12713 14.6687C9.16042 14.6494 9.18565 14.6217 9.21302 14.5953C9.28933 14.5214 9.36155 14.4438 9.4354 14.3679C9.5039 14.2975 9.57078 14.2256 9.64085 14.1574C9.72301 14.0775 9.80069 13.9933 9.88207 13.9124C9.94125 13.8536 9.99774 13.7908 10.0578 13.7326C10.1147 13.6768 10.166 13.6151 10.2259 13.5615C10.2827 13.5101 10.3483 13.5134 10.386 13.5814C10.4222 13.6465 10.4624 13.7094 10.4934 13.7765C10.5258 13.8466 10.5755 13.9066 10.6069 13.9775C10.6202 14.008 10.6367 14.039 10.6636 14.0612L10.6651 14.0633C10.6641 14.0741 10.6667 14.0827 10.6722 14.093C10.7136 14.1706 10.7585 14.2469 10.7989 14.3254C10.8171 14.3607 10.8299 14.4025 10.8675 14.4263L10.8694 14.4292C10.8694 14.4292 10.8717 14.4327 10.8729 14.4338L10.8749 14.4364C10.8738 14.4517 10.8742 14.4655 10.8832 14.4804C10.9513 14.5926 11.0188 14.7048 11.075 14.8232C11.0808 14.835 11.0875 14.8432 11.1006 14.8445C11.1012 14.8468 11.1018 14.8492 11.102 14.8515C11.1002 14.8681 11.1086 14.8807 11.1175 14.8933C11.1467 14.9355 11.1801 14.9705 11.2284 14.9934C11.2909 15.0232 11.3521 15.0556 11.4172 15.0797C11.4238 15.082 11.4309 15.0839 11.4375 15.0861C11.4385 15.0958 11.4456 15.1004 11.4529 15.1041C11.5067 15.1309 11.5608 15.1582 11.6146 15.1846C11.6667 15.2098 11.7206 15.232 11.7715 15.2593C11.8215 15.2866 11.8712 15.316 11.9234 15.3376C12.0233 15.3787 12.1152 15.4357 12.2146 15.4777C12.2732 15.5024 12.3258 15.5409 12.3895 15.5549C12.3927 15.5553 12.3959 15.5548 12.3991 15.5548C12.399 15.5561 12.3984 15.557 12.3978 15.5583C12.3991 15.5657 12.4044 15.5706 12.4103 15.5741C12.463 15.6053 12.5246 15.6181 12.5737 15.6557C12.5762 15.6574 12.5821 15.654 12.5868 15.6533L12.5892 15.6527ZM8.22155 17.8082C8.21516 17.8562 8.20961 17.9048 8.20231 17.9526C8.19776 17.9799 8.21038 17.9884 8.23374 17.9851C8.26043 17.9809 8.28655 17.9707 8.31339 17.9688C8.44141 17.9576 8.56576 17.9257 8.69255 17.9066C8.86944 17.8794 9.04498 17.8453 9.22101 17.8144C9.35059 17.7915 9.48022 17.7682 9.6104 17.7476C9.69702 17.734 9.78248 17.7395 9.86534 17.7747C9.9222 17.7987 9.97539 17.8296 10.0316 17.8549C10.186 17.9247 10.3401 17.996 10.4939 18.0667C10.6058 18.1181 10.7176 18.1704 10.8294 18.2223C10.9356 18.2716 11.0423 18.3205 11.1484 18.3703C11.1761 18.3831 11.1885 18.3792 11.1933 18.3466C11.2153 18.1988 11.2336 18.0511 11.2569 17.9035C11.3029 17.6097 11.3364 17.3138 11.3838 17.0201C11.3867 17.0014 11.3875 16.9823 11.3913 16.9636C11.4057 16.9039 11.4174 16.8438 11.4562 16.7928C11.4997 16.7352 11.5492 16.6833 11.5984 16.6305C11.6793 16.5432 11.7615 16.4564 11.8432 16.3692C11.9079 16.3002 11.9725 16.2316 12.0367 16.1626C12.0778 16.1187 12.1165 16.0727 12.1589 16.03C12.2632 15.9247 12.3622 15.8147 12.4616 15.7051C12.4826 15.6819 12.4739 15.6716 12.4496 15.6615C12.417 15.6476 12.3853 15.6315 12.3534 15.6158C12.3001 15.5895 12.2474 15.562 12.194 15.5361C12.1289 15.5046 12.0631 15.4758 11.9981 15.4438C11.8876 15.3894 11.7783 15.3324 11.6676 15.2784C11.5923 15.2414 11.5123 15.2125 11.4394 15.1713C11.3546 15.1234 11.2658 15.0842 11.1789 15.0412C11.1097 15.0068 11.0561 14.9549 11.0148 14.8933C10.9735 14.8316 10.9433 14.7628 10.908 14.6973C10.8394 14.5718 10.7669 14.4485 10.6993 14.3226C10.6053 14.148 10.5067 13.9755 10.4097 13.8024C10.3816 13.7516 10.3541 13.7004 10.3235 13.6512C10.3013 13.6149 10.2942 13.6162 10.2659 13.6462C10.2531 13.6601 10.2366 13.6706 10.2249 13.6855C10.1669 13.7568 10.0969 13.8173 10.0347 13.8848C9.97791 13.9466 9.91699 14.0047 9.85809 14.0649C9.77578 14.1493 9.69582 14.2368 9.61066 14.3186C9.51499 14.4104 9.42627 14.5086 9.33346 14.6031C9.25757 14.6806 9.17639 14.7429 9.06864 14.7637C8.96981 14.7829 8.86968 14.7947 8.77127 14.8176C8.60195 14.8567 8.43022 14.8863 8.26008 14.9212C8.10604 14.9522 7.951 14.9804 7.79635 15.0091C7.76018 15.0157 7.72367 15.0214 7.68803 15.0308C7.67471 15.0345 7.64847 15.0387 7.66361 15.0627C7.67621 15.0817 7.68298 15.1031 7.69371 15.1224C7.75536 15.2342 7.81549 15.3472 7.87561 15.4603C7.93279 15.5679 7.98952 15.6754 8.0467 15.783C8.09432 15.8729 8.14731 15.9603 8.19001 16.0527C8.23099 16.1408 8.28086 16.2242 8.32388 16.3107C8.36179 16.3874 8.38217 16.465 8.3737 16.5493C8.35645 16.72 8.32834 16.8897 8.31148 17.061C8.28597 17.3109 8.24334 17.5586 8.22098 17.809L8.22155 17.8082Z" fill="#EFB124"/>
<path d="M10.6647 14.0596C10.6374 14.0372 10.6215 14.0059 10.608 13.9758C10.5771 13.905 10.5273 13.8454 10.4945 13.7748C10.4636 13.7077 10.4229 13.6448 10.3871 13.5798C10.3494 13.5117 10.2838 13.5085 10.227 13.5598C10.1672 13.6135 10.1159 13.6751 10.0589 13.731C9.99935 13.7892 9.94285 13.852 9.88323 13.9107C9.80185 13.9916 9.72462 14.0759 9.64201 14.1557C9.57194 14.224 9.50506 14.2959 9.43655 14.3662C9.36271 14.4422 9.29049 14.5197 9.21418 14.5936C9.18681 14.6201 9.16203 14.6478 9.12829 14.6671C9.06523 14.7034 8.99383 14.7094 8.9249 14.7244C8.8243 14.7466 8.72255 14.7637 8.62101 14.7825C8.53263 14.7991 8.44424 14.8156 8.35552 14.8312C8.29683 14.8416 8.23931 14.8604 8.17951 14.8689C8.05007 14.8873 7.92489 14.9254 7.79564 14.9424C7.71914 14.9523 7.64487 14.973 7.56936 14.9857C7.50181 14.9973 7.46249 15.0619 7.51076 15.14C7.53631 15.1822 7.55738 15.227 7.58044 15.2707C7.61195 15.3302 7.64 15.3914 7.67598 15.4483C7.70589 15.4956 7.72313 15.5486 7.75258 15.5959C7.78844 15.6536 7.81926 15.7148 7.84911 15.7763C7.88291 15.8461 7.92009 15.9145 7.95689 15.9824C7.99284 16.0497 8.02772 16.1183 8.0661 16.1846C8.11973 16.2776 8.16939 16.3727 8.21368 16.4704C8.23464 16.5161 8.24371 16.5685 8.22883 16.6217C8.2163 16.6675 8.22129 16.7161 8.21552 16.7628C8.18684 16.985 8.1536 17.207 8.12897 17.4297C8.11428 17.5606 8.09419 17.6908 8.08412 17.8214C8.07655 17.9126 8.06274 18.0025 8.05298 18.093C8.04576 18.161 8.09938 18.2092 8.16672 18.1958C8.28165 18.1728 8.39799 18.1563 8.51346 18.1361C8.63316 18.115 8.75346 18.0964 8.87295 18.0735C8.94113 18.0607 9.01046 18.053 9.07876 18.0393C9.1461 18.0259 9.21545 18.0214 9.28084 18.0055C9.34193 17.9908 9.40456 17.9818 9.46566 17.9739C9.55474 17.9625 9.64188 17.9244 9.73561 17.9469C9.78179 17.9581 9.82603 17.9736 9.86985 17.9922C9.94788 18.0259 10.0222 18.0668 10.1013 18.0993C10.1534 18.1208 10.204 18.1476 10.2554 18.1714C10.3154 18.199 10.3749 18.2275 10.4366 18.253C10.487 18.2739 10.5365 18.3011 10.5865 18.3246C10.7107 18.3836 10.8329 18.4474 10.9591 18.5012C11.0272 18.5303 11.0921 18.5659 11.1597 18.5955C11.2147 18.6197 11.2852 18.5862 11.2984 18.5286C11.3334 18.3757 11.3415 18.2188 11.3675 18.0644C11.418 17.7684 11.4517 17.4707 11.4936 17.1735C11.501 17.1175 11.5086 17.061 11.5241 17.0064C11.54 16.9487 11.5745 16.8995 11.6181 16.8582C11.6668 16.8122 11.7067 16.7573 11.7537 16.711C11.7943 16.6708 11.833 16.628 11.8729 16.5868C11.9085 16.55 11.9458 16.5148 11.9811 16.477C12.0453 16.4079 12.1112 16.34 12.1725 16.2688C12.2376 16.1925 12.3126 16.1254 12.3766 16.0476C12.416 15.9994 12.4649 15.9594 12.5068 15.9129C12.5424 15.8734 12.5795 15.8354 12.6146 15.7958C12.6443 15.7619 12.6419 15.7218 12.6191 15.6832C12.6134 15.6742 12.6092 15.6645 12.604 15.6551C12.6444 15.6683 12.6474 15.7047 12.6549 15.7377C12.6499 15.7754 12.6319 15.8068 12.6063 15.834C12.5456 15.8971 12.4853 15.9607 12.4255 16.0244C12.3818 16.0707 12.3388 16.1179 12.2955 16.1642C12.2207 16.2441 12.1453 16.3245 12.07 16.4044C11.9921 16.4867 11.9183 16.5732 11.8396 16.6545C11.7796 16.7159 11.7217 16.7789 11.6613 16.8398C11.6295 16.8721 11.5923 16.9041 11.5723 16.9439C11.5543 16.9794 11.5342 17.0164 11.529 17.0587C11.5118 17.1951 11.4945 17.3316 11.4727 17.4675C11.4295 17.7403 11.3898 18.0139 11.352 18.2874C11.3464 18.3295 11.339 18.3715 11.3388 18.4143C11.3388 18.4696 11.3186 18.5212 11.3025 18.5729C11.2918 18.6085 11.234 18.63 11.1899 18.6168C11.1228 18.5969 11.062 18.5619 10.9982 18.5347C10.9426 18.5113 10.8896 18.4823 10.8336 18.4589C10.775 18.4342 10.7175 18.4051 10.6598 18.3773C10.5434 18.3216 10.4279 18.2633 10.3089 18.2132C10.1965 18.1658 10.0891 18.1086 9.97784 18.0591C9.90993 18.0286 9.84139 17.9994 9.77342 17.9693C9.73967 17.9543 9.70174 17.9465 9.66892 17.9554C9.60336 17.9727 9.53535 17.9705 9.46948 17.99C9.40887 18.0079 9.34336 18.0111 9.28055 18.0214C9.16052 18.0415 9.04094 18.0616 8.92085 18.0822C8.72615 18.1156 8.53118 18.1476 8.33657 18.1837C8.2759 18.1953 8.21498 18.2018 8.15421 18.2106C8.13368 18.2133 8.11713 18.2033 8.09848 18.2022C8.04814 18.1809 8.03061 18.1439 8.03907 18.077C8.04516 18.0312 8.05126 17.9855 8.05696 17.9392C8.09466 17.6356 8.13506 17.3324 8.16915 17.0283C8.18384 16.8974 8.20168 16.7669 8.21721 16.6366C8.22767 16.5513 8.2078 16.4733 8.16395 16.3999C8.1197 16.326 8.08332 16.2481 8.04303 16.1719C7.97648 16.0453 7.90454 15.9211 7.83945 15.7937C7.79114 15.6987 7.74034 15.6052 7.691 15.511C7.62562 15.3859 7.55831 15.2614 7.49292 15.1363C7.45714 15.0676 7.48193 14.9882 7.57298 14.9689C7.69373 14.9434 7.81502 14.9208 7.93532 14.8953C7.99617 14.8824 8.05901 14.8752 8.1202 14.8633C8.25578 14.8366 8.39109 14.8085 8.52712 14.7819C8.63769 14.7606 8.74881 14.742 8.85911 14.7193C8.94209 14.7021 9.02826 14.6953 9.10694 14.6587C9.15875 14.6346 9.1967 14.594 9.23331 14.5532C9.27264 14.5092 9.31601 14.4693 9.35696 14.4268C9.4198 14.3612 9.48503 14.2982 9.54546 14.23C9.57735 14.1936 9.61295 14.1605 9.6473 14.1263C9.68808 14.0851 9.72925 14.0445 9.77003 14.0034C9.82245 13.9506 9.87481 13.8982 9.92684 13.8449C10.014 13.7551 10.1003 13.6648 10.1879 13.5751C10.2059 13.5565 10.2248 13.5385 10.2457 13.523C10.288 13.4908 10.3646 13.5083 10.3929 13.5536C10.414 13.5879 10.4277 13.6262 10.4543 13.6572C10.4541 13.6754 10.4687 13.6865 10.4769 13.7008C10.5307 13.7993 10.5855 13.897 10.6389 13.9954C10.65 14.0156 10.6712 14.0317 10.6676 14.0586L10.6647 14.0596Z" fill="#F4C445"/>
<path d="M11.4395 15.0845C11.4707 15.0846 11.4922 15.1085 11.5199 15.1176C11.5484 15.1273 11.5752 15.1428 11.6029 15.1556C11.6716 15.1903 11.7404 15.2246 11.809 15.2598C11.8378 15.2746 11.8675 15.2854 11.8983 15.2949C11.9016 15.2977 11.9045 15.3003 11.9078 15.3031C11.9594 15.3391 12.0182 15.3621 12.0741 15.3896C12.1804 15.4421 12.2873 15.4929 12.3929 15.5467C12.3926 15.5489 12.3923 15.5511 12.392 15.5534C12.3283 15.5394 12.2757 15.5009 12.2171 15.4762C12.1177 15.4342 12.0258 15.3772 11.9259 15.3361C11.8742 15.3146 11.8244 15.2851 11.774 15.2578C11.7231 15.2305 11.6692 15.2083 11.6171 15.1831C11.5628 15.1567 11.5092 15.1294 11.4554 15.1026C11.4481 15.0989 11.441 15.0939 11.44 15.0846L11.4395 15.0845Z" fill="#F4C445"/>
<path d="M12.5892 15.6527C12.5849 15.6535 12.5785 15.6572 12.576 15.6551C12.5265 15.6174 12.4649 15.6047 12.4127 15.5735C12.4063 15.5699 12.4014 15.5651 12.4001 15.5577C12.454 15.563 12.4941 15.5994 12.5402 15.6215C12.5569 15.6297 12.5807 15.6301 12.5892 15.6527Z" fill="#F4C445"/>
<path d="M12.3914 15.5545C12.3918 15.552 12.3926 15.5496 12.3924 15.5471C12.3956 15.5495 12.3983 15.5519 12.4015 15.5543C12.3981 15.5538 12.3945 15.5544 12.3909 15.5544L12.3914 15.5545Z" fill="#BBCECF"/>
<path d="M12.5993 15.6559L12.6011 15.6561L12.6016 15.6525L12.5993 15.6559Z" fill="#F4C445"/>
<path d="M8.22156 17.8082C8.24392 17.5578 8.28661 17.3096 8.31206 17.0601C8.32936 16.8889 8.35742 16.7196 8.37427 16.5484C8.38269 16.4646 8.36282 16.3866 8.32446 16.3098C8.28149 16.2229 8.23157 16.14 8.19058 16.0519C8.14783 15.9599 8.09535 15.8721 8.04728 15.7821C7.9901 15.6745 7.93337 15.567 7.87619 15.4594C7.81607 15.3464 7.75594 15.2334 7.69429 15.1215C7.68361 15.1018 7.67678 15.0809 7.66419 15.0618C7.64898 15.0383 7.67528 15.0336 7.68861 15.0299C7.72419 15.021 7.76075 15.0149 7.79693 15.0083C7.95152 14.98 8.10655 14.9518 8.26066 14.9203C8.43118 14.886 8.60246 14.8563 8.77185 14.8168C8.86975 14.7942 8.97039 14.7821 9.06922 14.7628C9.17697 14.742 9.25815 14.6798 9.33404 14.6022C9.4264 14.5077 9.51518 14.4091 9.61123 14.3178C9.69639 14.236 9.77636 14.1485 9.85867 14.064C9.91757 14.0038 9.97848 13.9458 10.0353 13.8839C10.0975 13.8164 10.1674 13.7559 10.2255 13.6847C10.2375 13.6703 10.2537 13.6592 10.2665 13.6454C10.2948 13.6154 10.3019 13.614 10.3241 13.6503C10.3546 13.6996 10.3818 13.7507 10.4103 13.8015C10.5073 13.9747 10.6058 14.1471 10.6999 14.3217C10.7675 14.4476 10.84 14.571 10.9085 14.6965C10.9443 14.762 10.9745 14.8308 11.0154 14.8924C11.0567 14.9541 11.1103 15.006 11.1795 15.0403C11.2664 15.0834 11.3551 15.1226 11.44 15.1704C11.5129 15.2116 11.5925 15.2405 11.6682 15.2775C11.7788 15.3315 11.8881 15.3886 11.9987 15.443C12.0632 15.4749 12.1295 15.5038 12.1945 15.5353C12.2479 15.5611 12.3006 15.5887 12.354 15.615C12.3858 15.6306 12.4177 15.6463 12.4501 15.6607C12.474 15.6711 12.4827 15.6814 12.4622 15.7043C12.3628 15.8138 12.2638 15.9239 12.1594 16.0292C12.1171 16.0719 12.0784 16.1179 12.0373 16.1617C11.9731 16.2308 11.9085 16.2993 11.8438 16.3683C11.762 16.4556 11.6804 16.5419 11.599 16.6297C11.5502 16.6826 11.5007 16.7344 11.4568 16.792C11.4179 16.843 11.4063 16.9031 11.3919 16.9628C11.3876 16.9809 11.3869 17.0004 11.3844 17.0193C11.337 17.3129 11.3035 17.6089 11.2575 17.9027C11.2342 18.0502 11.2158 18.1984 11.1939 18.3457C11.1891 18.3784 11.1766 18.3827 11.149 18.3694C11.0429 18.3197 10.9366 18.2708 10.83 18.2214C10.7181 18.1696 10.6064 18.1172 10.4945 18.0658C10.3403 17.9946 10.1866 17.9234 10.0322 17.854C9.97597 17.8287 9.92277 17.7979 9.86592 17.7739C9.78299 17.7391 9.69754 17.7336 9.61098 17.7468C9.48086 17.7669 9.35116 17.7907 9.22158 17.8136C9.04556 17.8445 8.87002 17.8786 8.69312 17.9057C8.56634 17.9249 8.44199 17.9567 8.31396 17.968C8.28706 17.9703 8.26095 17.9805 8.23432 17.9843C8.21141 17.9876 8.19828 17.9795 8.20289 17.9518C8.21063 17.904 8.21574 17.8553 8.22213 17.8073L8.22156 17.8082ZM7.95055 15.1593C7.95893 15.1618 7.9641 15.1643 7.97001 15.1647C8.08928 15.1778 8.2076 15.1981 8.3278 15.2078C8.4662 15.2184 8.60477 15.2278 8.74338 15.2335C8.8888 15.2396 9.03451 15.2366 9.18023 15.2337C9.27628 15.2319 9.37221 15.2309 9.4682 15.2227C9.49555 15.2204 9.51308 15.2127 9.52655 15.1908C9.56273 15.1326 9.60311 15.0773 9.64219 15.0213C9.7267 14.8997 9.80571 14.7746 9.88517 14.6496C9.92989 14.5789 9.97035 14.5058 10.0113 14.4327C10.0486 14.3655 10.0877 14.2995 10.1216 14.231C10.1543 14.1641 10.1865 14.0977 10.2202 14.0309C10.2327 14.0061 10.2425 13.9805 10.2477 13.9515C10.2252 13.9517 10.2124 13.9655 10.2002 13.9776C10.1087 14.0695 10.0135 14.1581 9.92463 14.2536C9.84377 14.341 9.76408 14.4299 9.68775 14.5211C9.58247 14.6472 9.48509 14.7794 9.38273 14.9078C9.37117 14.9222 9.3653 14.9456 9.33723 14.9464C9.26367 14.948 9.19053 14.9602 9.11757 14.9642C8.9385 14.9732 8.76106 14.9975 8.58335 15.0204C8.50127 15.0309 8.41988 15.0465 8.33855 15.0617C8.22854 15.0822 8.11965 15.1047 8.01239 15.1356C7.99285 15.1412 7.96822 15.1334 7.95145 15.1594L7.95055 15.1593ZM8.46025 17.7268C8.47299 17.6965 8.48744 17.6706 8.49475 17.6433C8.51153 17.5793 8.53359 17.5169 8.55345 17.4538C8.56996 17.4022 8.58822 17.3512 8.60518 17.2996C8.6409 17.1898 8.67178 17.0784 8.70846 16.9682C8.76262 16.806 8.81374 16.6426 8.86609 16.4802C8.87642 16.4473 8.85393 16.4407 8.83063 16.4366C8.76156 16.4252 8.69318 16.4119 8.62483 16.3951C8.60312 16.3894 8.59111 16.397 8.58885 16.4209C8.57487 16.5774 8.56044 16.7339 8.54555 16.8903C8.53607 16.9891 8.52337 17.0878 8.51067 17.1866C8.48943 17.3563 8.48351 17.5281 8.45275 17.697C8.45168 17.7051 8.44919 17.7134 8.45974 17.7272L8.46025 17.7268Z" fill="#F4C445"/>
<path d="M10.876 14.4351C10.9167 14.4803 10.9376 14.5369 10.967 14.5883C11.009 14.662 11.0499 14.7363 11.0914 14.8104C11.0974 14.8207 11.1043 14.8303 11.1017 14.8432C11.0881 14.8419 11.0814 14.8341 11.0761 14.822C11.0199 14.7036 10.952 14.5909 10.8843 14.4792C10.8753 14.4643 10.8748 14.4505 10.876 14.4351Z" fill="#F4C445"/>
<path d="M10.6667 14.0621C10.6976 14.0849 10.7062 14.1231 10.7251 14.1534C10.7737 14.2325 10.8168 14.3149 10.8625 14.3954C10.868 14.4053 10.8733 14.4138 10.8686 14.425C10.8314 14.4013 10.8183 14.359 10.8 14.3241C10.7596 14.2457 10.7147 14.1698 10.6733 14.0917C10.6678 14.0814 10.6653 14.0724 10.6662 14.062L10.6667 14.0621Z" fill="#F4C445"/>
<path d="M11.1035 14.8503C11.1276 14.859 11.1319 14.8847 11.1453 14.9015C11.1848 14.9524 11.2389 14.9802 11.2943 15.0077C11.3326 15.0265 11.3708 15.0462 11.409 15.0654C11.4146 15.0684 11.4182 15.0726 11.4192 15.0786C11.3541 15.0544 11.2929 15.0221 11.2304 14.9923C11.1821 14.9694 11.1487 14.9344 11.1195 14.8922C11.1106 14.8796 11.1023 14.8666 11.104 14.8504L11.1035 14.8503Z" fill="#F4C445"/>
<path d="M10.8705 14.428C10.8705 14.428 10.8744 14.4332 10.8764 14.4358C10.8744 14.4332 10.8725 14.4306 10.8705 14.428Z" fill="#F4C445"/>
<path d="M7.95055 15.1593C7.96732 15.1333 7.99195 15.1411 8.01149 15.1355C8.11875 15.1046 8.22809 15.0822 8.33765 15.0616C8.41898 15.0464 8.50082 15.0309 8.58245 15.0203C8.76016 14.9974 8.93754 14.9735 9.11667 14.9641C9.19008 14.9602 9.26277 14.9479 9.33633 14.9463C9.3644 14.9455 9.37027 14.9221 9.38182 14.9076C9.48419 14.7793 9.58163 14.6466 9.68685 14.521C9.76318 14.4298 9.84242 14.3408 9.92373 14.2535C10.0121 14.158 10.1073 14.0698 10.1993 13.9775C10.2116 13.965 10.2239 13.9515 10.2468 13.9514C10.2416 13.9804 10.2318 14.006 10.2193 14.0308C10.1862 14.0972 10.1534 14.164 10.1207 14.2309C10.0868 14.2994 10.0477 14.3659 10.0104 14.4326C9.9699 14.5057 9.92944 14.5788 9.88426 14.6495C9.80526 14.7746 9.7258 14.8996 9.64129 15.0212C9.60221 15.0772 9.56182 15.1325 9.52565 15.1907C9.51218 15.2126 9.4942 15.2203 9.4673 15.2226C9.37131 15.2308 9.27538 15.2318 9.17933 15.2336C9.03361 15.2365 8.88835 15.2395 8.74248 15.2333C8.60387 15.2277 8.4653 15.2183 8.3269 15.2076C8.2067 15.198 8.08832 15.1781 7.96911 15.1645C7.96371 15.1638 7.95809 15.1613 7.94965 15.1592L7.95055 15.1593Z" fill="#F7D480"/>
<path d="M8.46025 17.7268C8.4497 17.713 8.45174 17.7046 8.45326 17.6966C8.48402 17.5277 8.48989 17.3564 8.51119 17.1862C8.52337 17.0878 8.53652 16.9891 8.54607 16.89C8.56095 16.7335 8.57538 16.577 8.58936 16.4205C8.59163 16.3966 8.60357 16.3895 8.62535 16.3947C8.69319 16.4119 8.76208 16.4248 8.83114 16.4363C8.85445 16.4403 8.87694 16.4469 8.8666 16.4798C8.81419 16.6426 8.76313 16.8057 8.70898 16.9678C8.67236 17.0775 8.64147 17.1889 8.60569 17.2992C8.58873 17.3508 8.57048 17.4018 8.55397 17.4535C8.53365 17.5165 8.5121 17.5785 8.49527 17.6429C8.4879 17.6707 8.47344 17.6966 8.46076 17.7264L8.46025 17.7268Z" fill="#F7D480"/>
<path d="M30.1061 6.31792C30.1904 6.52987 30.2038 6.75769 30.254 6.97701C30.3348 7.32863 30.4007 7.68409 30.4668 8.039C30.5586 8.5303 30.6441 9.02274 30.7341 9.51449C30.8204 9.98431 30.9174 10.4523 30.9928 10.9235C31.0327 11.1721 31.1183 11.4127 31.1267 11.6666C29.9476 11.9695 28.7683 12.2715 27.5899 12.5771C27.5128 12.5968 27.4664 12.5821 27.4163 12.5202C27.0627 12.0839 26.6377 11.7328 26.134 11.4826C25.0458 10.9418 23.9263 10.8809 22.7993 11.3391C21.5117 11.8628 20.7111 12.8236 20.3866 14.1669C20.3356 14.3776 20.2571 14.4645 20.0492 14.5155C18.9254 14.7907 17.8061 15.0834 16.6852 15.37C16.6584 15.3002 16.628 15.231 16.6046 15.1599C16.4729 14.7601 16.3444 14.3595 16.2115 13.9605C16.0369 13.4368 15.8551 12.9148 15.684 12.3901C15.5418 11.9548 15.3878 11.5228 15.2629 11.0816C15.1891 10.8212 15.1048 10.5639 15.0262 10.3051C15.0152 10.2697 15.0116 10.2318 15.0045 10.1949C15.0177 10.2298 15.0331 10.2641 15.0436 10.2998C15.0869 10.4503 15.0865 10.4504 15.2437 10.4105C15.2547 10.4077 15.2657 10.4049 15.2767 10.4021C20.1788 9.14465 25.0809 7.88723 29.9829 6.62981C30.0159 6.62135 30.0485 6.61113 30.0817 6.60353C30.1372 6.59117 30.1542 6.56064 30.1413 6.50463C30.1273 6.44281 30.1002 6.38295 30.1058 6.31704L30.1061 6.31792Z" fill="#7C4028"/>
<path d="M32.4394 18.8656C32.535 19.319 32.6096 19.7759 32.6768 20.2338C32.7728 20.8861 32.8513 21.5397 32.832 22.2015C32.8317 22.2128 32.8317 22.224 32.8313 22.2353C32.8174 22.587 32.8013 22.6065 32.4655 22.6926C28.6008 23.6839 24.7362 24.6752 20.8712 25.6667C20.8386 25.675 20.8065 25.687 20.7745 25.6975C20.7098 25.6847 20.6717 25.7538 20.6055 25.7484C20.4917 25.7383 20.4243 25.6692 20.3631 25.5844C20.1379 25.2712 19.9817 24.9203 19.8273 24.5707C19.521 23.8761 19.269 23.1605 19.0341 22.4387C19.019 22.3926 19.0121 22.3439 19.0014 22.2966C19.038 22.2873 19.0747 22.2788 19.1113 22.2694C23.4908 21.146 27.87 20.0227 32.2497 18.8998C32.3118 18.8838 32.3725 18.8608 32.4384 18.8654L32.4394 18.8656Z" fill="#CD8537"/>
<path d="M32.4394 18.8656C32.3736 18.8614 32.3128 18.8841 32.2507 18.9C27.8711 20.0234 23.492 21.1467 19.1123 22.2696C19.0757 22.279 19.0391 22.2879 19.0024 22.2969C18.8718 21.9725 18.7707 21.6387 18.66 21.3074C18.4558 20.6982 18.2336 20.0951 18.0448 19.4815C17.9299 19.1087 17.7834 18.7459 17.6915 18.3658C17.7236 18.3557 17.7559 18.3442 17.7889 18.3357C18.8541 18.0625 19.9196 17.7906 20.9843 17.5137C21.0798 17.4892 21.1311 17.5116 21.1941 17.5837C22.2246 18.7663 23.5218 19.2492 25.0692 18.9612C26.7079 18.6562 27.9376 17.3891 28.2456 15.7535C28.2606 15.6749 28.2923 15.6392 28.3694 15.6199C28.8061 15.5116 29.2407 15.3973 29.6767 15.2864C30.3469 15.1154 31.0171 14.9449 31.6874 14.7744C31.7446 14.9774 31.7719 15.1862 31.8105 15.3931C31.9166 15.9625 32.0263 16.531 32.1293 17.1007C32.2359 17.6882 32.3368 18.2771 32.4398 18.8655L32.4394 18.8656Z" fill="#7C4028"/>
<path d="M30.1061 6.31793C30.1004 6.38384 30.1275 6.4437 30.1415 6.50552C30.154 6.56164 30.137 6.59217 30.082 6.60442C30.0487 6.61201 30.0162 6.62223 29.9832 6.6307C25.0811 7.88812 20.179 9.14554 15.277 10.403C15.266 10.4058 15.2549 10.4086 15.2439 10.4114C15.0868 10.4517 15.0872 10.4516 15.0438 10.3006C15.0337 10.2649 15.0179 10.2307 15.0047 10.1957C14.946 9.96692 14.8877 9.73756 14.8294 9.50863C14.8196 9.40089 14.7898 9.29735 14.7586 9.19415C14.6701 8.82162 14.614 8.44402 14.5764 8.06311C14.6456 8.04396 14.7146 8.02393 14.7841 8.00609C19.5475 6.78424 24.3109 5.56239 29.0744 4.34053C29.2024 4.30768 29.3309 4.27614 29.4592 4.24416C29.6097 4.619 29.7535 4.99652 29.8574 5.38706C29.8734 5.47313 29.8907 5.55886 29.9299 5.63851C29.9881 5.86557 30.0472 6.09197 30.1054 6.31903L30.1061 6.31793Z" fill="#CD8537"/>
<path d="M31.6865 14.7746C31.0162 14.9451 30.346 15.1157 29.6758 15.2866C29.24 15.398 28.8052 15.5118 28.3686 15.6201C28.2914 15.6394 28.2593 15.6752 28.2447 15.7537C27.9367 17.3894 26.707 18.6564 25.0683 18.9614C23.5209 19.2495 22.2237 18.7665 21.1933 17.5839C21.1301 17.5114 21.0788 17.489 20.9834 17.514C19.9191 17.7907 18.8536 18.0626 17.788 18.3359C17.755 18.3444 17.7232 18.3558 17.6906 18.3661C17.6089 18.2249 17.5769 18.0654 17.5257 17.9132C17.2474 17.088 16.974 16.2616 16.6992 15.4355C16.6924 15.4144 16.6898 15.3917 16.6851 15.3696C17.806 15.083 18.9253 14.7903 20.0491 14.5151C20.2569 14.4641 20.3355 14.3771 20.3865 14.1664C20.7106 12.8238 21.5116 11.8624 22.7992 11.3387C23.9262 10.8805 25.0455 10.941 26.1339 11.4822C26.6377 11.7328 27.0632 12.0838 27.4161 12.5198C27.4664 12.5821 27.5128 12.5968 27.5898 12.5766C28.7683 12.2715 29.9476 11.9695 31.1265 11.6662C31.2241 12.191 31.3227 12.7161 31.4189 13.2413C31.5052 13.7111 31.5897 14.1814 31.6751 14.6514C31.6822 14.6921 31.6962 14.7319 31.6858 14.7738L31.6865 14.7746ZM27.58 14.2265C27.1641 12.4078 25.2619 11.3218 23.4885 11.7603C21.6517 12.2147 20.5884 14.0829 20.9905 15.8004C21.4292 17.6753 23.3117 18.7794 25.1205 18.3238C26.9483 17.8634 28.0566 15.986 27.58 14.2265Z" fill="#E9BB8D"/>
<path d="M29.4594 4.24316C29.3311 4.27514 29.2027 4.30668 29.0746 4.33954C24.3112 5.56139 19.5477 6.78324 14.7843 8.00509C14.7148 8.02293 14.6458 8.04296 14.5766 8.06212C14.4521 8.09264 14.3277 8.12317 14.203 8.15281C14.0712 8.18427 13.9413 8.18255 13.815 8.12899C13.7041 8.08268 13.6316 8.00646 13.6015 7.88568C13.5221 7.56501 13.4377 7.24515 13.3552 6.92527C13.2798 6.63158 13.3728 6.45822 13.6643 6.3489C13.6751 6.34377 13.6861 6.33908 13.697 6.33396C13.7129 6.32989 13.7283 6.32594 13.7441 6.32188C13.761 6.33109 13.7747 6.32759 13.7851 6.31138C13.9105 6.2792 14.0364 6.24691 14.1618 6.21473C14.1684 6.21304 14.1746 6.21145 14.1812 6.20976C14.2186 6.20016 14.2555 6.19024 14.2928 6.18021C14.3101 6.18931 14.3238 6.18581 14.3346 6.16948C14.3499 6.16322 14.3653 6.15741 14.3801 6.15126C19.1554 4.92636 23.9307 3.70146 28.706 2.47656C28.7224 2.47469 28.7383 2.47249 28.7547 2.47062C28.7617 2.46881 28.7683 2.46712 28.7754 2.46531C28.9762 2.4124 29.1753 2.34918 29.379 2.30953C29.5971 2.26714 29.8036 2.29313 29.9394 2.50262C30.0282 2.85221 30.117 3.20224 30.2062 3.55171C30.2732 3.81297 30.1945 3.98358 29.9468 4.10039C29.7919 4.17329 29.6198 4.18988 29.4584 4.24295L29.4594 4.24316Z" fill="#E5E6E7"/>
<path d="M28.707 2.47675C23.9317 3.70165 19.1564 4.92655 14.3811 6.15145C14.3378 5.97709 14.2948 5.80218 14.2515 5.62782C14.1762 5.32523 14.309 5.09868 14.6105 5.02134C14.9094 4.94468 15.2087 4.86977 15.5079 4.79442C15.5508 4.93058 15.5898 4.95281 15.7338 4.91589C16.5869 4.69752 17.4398 4.47828 18.2929 4.25947C18.4064 4.23034 18.52 4.20121 18.6329 4.17132C18.6768 4.15959 18.7372 4.14456 18.7333 4.09463C18.7237 3.96021 18.8216 3.95612 18.9079 3.93399C21.8623 3.17617 24.8166 2.41836 27.7709 1.6601C27.8294 1.64509 27.8863 1.62536 27.9441 1.60772C27.9652 1.59296 27.9885 1.58698 28.0141 1.58976C28.0841 1.62835 28.1561 1.58931 28.2268 1.59408C28.416 1.63105 28.5126 1.7609 28.5615 1.93336C28.6129 2.11359 28.6581 2.2954 28.7061 2.47698L28.707 2.47675Z" fill="#CFD1D3"/>
<path d="M27.945 1.60752C27.8871 1.62516 27.8303 1.64489 27.7717 1.65991C24.8174 2.41772 21.863 3.17553 18.9088 3.93379C18.8225 3.95592 18.7246 3.96001 18.7342 4.09443C18.7376 4.14447 18.6776 4.15895 18.6338 4.17112C18.5205 4.20156 18.4069 4.23025 18.2937 4.25927C17.4407 4.47808 16.5877 4.69689 15.7347 4.9157C15.5903 4.95273 15.5513 4.9305 15.5088 4.79423C15.5238 4.70443 15.4765 4.62637 15.4607 4.54261C15.4469 4.4686 15.4688 4.4298 15.5436 4.41061C16.1522 4.25732 16.7606 4.10172 17.3686 3.94624C17.4214 3.93269 17.4727 3.9298 17.492 3.9884C17.515 4.06004 17.5642 4.05069 17.6178 4.04537C17.9377 4.01423 18.2567 3.96838 18.5774 3.95853C18.8082 3.95119 19.0224 3.89017 19.2398 3.83439C22.0937 3.10375 24.9476 2.37124 27.8012 1.63928C27.8487 1.62708 27.897 1.61796 27.945 1.60752Z" fill="#E5E6E7"/>
<path d="M28.2278 1.5943C28.1571 1.58953 28.0852 1.62902 28.0151 1.58999C28.0864 1.56983 28.1575 1.56186 28.2278 1.5943Z" fill="#E5E6E7"/>
<path d="M14.7588 9.19315C14.7895 9.29646 14.8197 9.39944 14.8296 9.50762C14.7878 9.40669 14.7598 9.30314 14.7588 9.19315Z" fill="#7C4028"/>
<path d="M13.7859 6.31114C13.7755 6.32735 13.7619 6.33085 13.745 6.32164C13.7586 6.31814 13.7723 6.31464 13.7859 6.31114Z" fill="#CFD1D3"/>
<path d="M14.3355 6.16926C14.3245 6.18515 14.3104 6.18876 14.2936 6.17999C14.3077 6.17637 14.3218 6.17276 14.3355 6.16926Z" fill="#CFD1D3"/>
<path d="M14.1804 6.20929C14.1742 6.21089 14.1683 6.21238 14.1621 6.21398C14.1672 6.20783 14.173 6.20633 14.1804 6.20929Z" fill="#CFD1D3"/>
<path d="M28.7755 2.46505C28.7688 2.46676 28.7626 2.46836 28.7559 2.47006C28.7614 2.4638 28.7676 2.46179 28.7755 2.46505Z" fill="#CFD1D3"/>
<path d="M29.9301 5.63752C29.8909 5.55787 29.8736 5.47214 29.8576 5.38607C29.9033 5.46359 29.9255 5.54808 29.9301 5.63752Z" fill="#7C4028"/>
<path d="M26.6084 13.1988C26.612 13.1979 26.6159 13.1969 26.6194 13.196L26.619 13.1961C26.6203 13.1958 26.6214 13.1964 26.6226 13.1975C26.6309 13.2042 26.6385 13.2117 26.6471 13.2179C26.6832 13.245 26.7003 13.2808 26.6851 13.324C26.6674 13.3738 26.6472 13.4229 26.629 13.4729C26.6079 13.5316 26.5777 13.5874 26.5586 13.6465C26.5284 13.7426 26.4839 13.8325 26.4521 13.928C26.422 14.0175 26.3862 14.1047 26.3525 14.1928C26.3344 14.2409 26.3126 14.2876 26.2933 14.335C26.2722 14.3881 26.2522 14.4418 26.2292 14.4949C26.2031 14.5558 26.1866 14.6212 26.1586 14.6821C26.1337 14.7371 26.1202 14.7957 26.1269 14.8547C26.1332 14.9105 26.1475 14.9662 26.1611 15.0211C26.2334 15.3123 26.3137 15.6015 26.3776 15.8944C26.4111 16.0469 26.4623 16.1955 26.4871 16.3507C26.4965 16.4091 26.4441 16.4664 26.3836 16.4647C26.3099 16.4625 26.2368 16.4537 26.1623 16.4523C26.0251 16.4496 25.8881 16.4367 25.7507 16.428C25.6954 16.4244 25.6394 16.4182 25.5848 16.4177C25.5185 16.417 25.4527 16.4128 25.3862 16.4098C25.3297 16.407 25.2727 16.4006 25.2164 16.4006C25.1309 16.4001 25.0467 16.3899 24.9617 16.3879C24.9145 16.3869 24.8677 16.3891 24.8203 16.3961C24.7249 16.4103 24.6587 16.4778 24.5801 16.5222C24.5259 16.5525 24.4716 16.5841 24.4205 16.6206C24.3653 16.66 24.3027 16.6901 24.2457 16.7276C24.1875 16.7659 24.1261 16.7989 24.0677 16.8363C23.9654 16.9023 23.8608 16.9646 23.7577 17.0289C23.6582 17.0909 23.5565 17.1497 23.4585 17.214C23.4011 17.2517 23.3337 17.2269 23.3146 17.1613C23.2893 17.0738 23.2692 16.9846 23.2418 16.8977C23.2026 16.7723 23.1721 16.6442 23.1368 16.5177C23.0768 16.3019 23.0241 16.0837 22.9675 15.8669C22.9558 15.8213 22.9326 15.7782 22.9271 15.7311C22.9209 15.6761 22.8925 15.6311 22.8564 15.5964C22.7788 15.5224 22.6971 15.4528 22.6126 15.3866C22.5522 15.3395 22.4942 15.289 22.4356 15.24C22.376 15.1903 22.316 15.1412 22.2586 15.0892C22.2083 15.0432 22.1564 14.9981 22.1015 14.958C22.0565 14.9252 22.0207 14.8825 21.9753 14.8498C21.9207 14.811 21.8717 14.7642 21.8202 14.7209C21.7825 14.689 21.7465 14.6548 21.7067 14.6257C21.6326 14.5709 21.645 14.4967 21.7033 14.4607C21.7684 14.4202 21.8297 14.3737 21.8969 14.3359C22.0104 14.2717 22.1122 14.1895 22.2254 14.1241C22.2773 14.0939 22.3236 14.055 22.3745 14.0232C22.451 13.9756 22.5267 13.9272 22.6025 13.8788C22.6896 13.8233 22.7776 13.7694 22.8626 13.7111C22.9204 13.6715 22.9848 13.6391 23.0297 13.5818C23.0534 13.5515 23.0664 13.5164 23.0819 13.4816C23.125 13.3845 23.163 13.2856 23.203 13.1875C23.2402 13.0966 23.2753 13.0049 23.3148 12.9154C23.3611 12.8106 23.4016 12.7034 23.4468 12.598C23.4797 12.5213 23.5086 12.442 23.5424 12.3655C23.5743 12.2924 23.5989 12.216 23.6343 12.1439C23.6678 12.075 23.7298 12.0535 23.7902 12.1025C23.8482 12.1493 23.909 12.1925 23.9628 12.2432C24.0191 12.2961 24.0877 12.3331 24.1433 12.3871C24.1671 12.4104 24.194 12.4329 24.2272 12.4436L24.2294 12.4449C24.2326 12.4553 24.2381 12.4623 24.2471 12.4698C24.3146 12.5263 24.3847 12.5802 24.4515 12.6378C24.4816 12.6637 24.5092 12.6978 24.5529 12.7057L24.5558 12.7078C24.5558 12.7078 24.5592 12.7102 24.5608 12.7107L24.5635 12.7123C24.5683 12.727 24.5738 12.7396 24.5878 12.75C24.6928 12.8287 24.7975 12.9074 24.8939 12.9962C24.9037 13.0049 24.9129 13.01 24.9256 13.0063C24.927 13.0083 24.9285 13.0102 24.9295 13.0123C24.9341 13.0284 24.9466 13.0369 24.9595 13.0453C25.0024 13.0735 25.0465 13.0935 25.0998 13.0966C25.1689 13.1009 25.2378 13.108 25.3072 13.106C25.3142 13.1057 25.3214 13.1047 25.3284 13.1043C25.3329 13.113 25.3413 13.1146 25.3495 13.1153C25.4093 13.12 25.4697 13.1251 25.5295 13.1294C25.5872 13.1333 25.6455 13.1337 25.703 13.14C25.7595 13.1465 25.8166 13.1552 25.8731 13.1557C25.9812 13.1565 26.0877 13.1749 26.1956 13.1767C26.2592 13.1777 26.3224 13.1937 26.3867 13.1828C26.3897 13.182 26.3926 13.1804 26.3956 13.1791C26.3959 13.1804 26.3957 13.1814 26.3956 13.1829C26.3996 13.1893 26.4063 13.1918 26.4132 13.1928C26.4737 13.2021 26.5356 13.1909 26.5952 13.2074C26.5981 13.208 26.6024 13.2027 26.6065 13.2002L26.6084 13.1988ZM23.3648 16.8321C23.3768 16.879 23.3898 16.9261 23.401 16.9732C23.4069 17.0002 23.4218 17.0034 23.4423 16.9916C23.4654 16.9777 23.4858 16.9585 23.51 16.9467C23.6245 16.8883 23.7279 16.8123 23.8383 16.7471C23.9922 16.6557 24.1423 16.5584 24.2939 16.4639C24.4055 16.3941 24.517 16.324 24.63 16.2562C24.7053 16.2112 24.7866 16.1843 24.8766 16.1859C24.9383 16.1869 24.9992 16.1956 25.0608 16.198C25.2301 16.2051 25.3997 16.2134 25.5687 16.2214C25.6917 16.2273 25.815 16.234 25.9381 16.2402C26.055 16.2462 26.1723 16.2516 26.2893 16.258C26.3197 16.2596 26.3298 16.2514 26.3221 16.2193C26.2872 16.0741 26.2488 15.9302 26.2153 15.7846C26.148 15.4949 26.0683 15.208 26.0023 14.918C25.9981 14.8994 25.9916 14.8815 25.9882 14.8627C25.9792 14.802 25.9675 14.7419 25.9845 14.6801C26.0032 14.6103 26.0297 14.5437 26.0556 14.4763C26.0979 14.3651 26.1416 14.2539 26.1848 14.1423C26.2189 14.0542 26.2532 13.9664 26.2869 13.8784C26.3086 13.8223 26.3273 13.7652 26.3506 13.7097C26.408 13.5731 26.4586 13.4339 26.5098 13.2951C26.5205 13.2657 26.5086 13.2595 26.4823 13.2592C26.4469 13.2585 26.4114 13.2554 26.376 13.2528C26.3167 13.2484 26.2575 13.2426 26.1983 13.2386C26.1262 13.2337 26.0544 13.2316 25.9822 13.2263C25.8593 13.2172 25.7366 13.2052 25.6138 13.1965C25.5301 13.1904 25.4451 13.1935 25.3621 13.1826C25.2655 13.17 25.1685 13.1669 25.0718 13.1594C24.9948 13.1535 24.9256 13.1254 24.8643 13.0837C24.8029 13.042 24.7491 12.9894 24.6919 12.942C24.5813 12.8512 24.468 12.764 24.3582 12.6725C24.2056 12.5458 24.0497 12.4227 23.8949 12.2985C23.8499 12.2619 23.8052 12.2248 23.7584 12.1905C23.7242 12.1652 23.7182 12.1691 23.7032 12.2075C23.6964 12.2251 23.685 12.2411 23.6798 12.2593C23.6526 12.3471 23.6104 12.4294 23.578 12.5152C23.5485 12.5938 23.5137 12.6705 23.4816 12.7483C23.4369 12.8574 23.3955 12.9685 23.3471 13.0762C23.2927 13.1972 23.2472 13.3214 23.1965 13.4438C23.1551 13.5441 23.1031 13.6322 23.011 13.6918C22.9266 13.7466 22.8381 13.795 22.7554 13.8531C22.613 13.9527 22.4649 14.0444 22.3201 14.1404C22.1889 14.2269 22.0557 14.311 21.923 14.3955C21.8919 14.4152 21.8602 14.4341 21.8307 14.4561C21.8197 14.4645 21.797 14.4783 21.82 14.4948C21.8388 14.5078 21.8531 14.5251 21.8702 14.5389C21.9692 14.6196 22.0673 14.7019 22.1653 14.7842C22.2586 14.8626 22.3515 14.9411 22.4448 15.0195C22.5226 15.085 22.6044 15.1462 22.6786 15.216C22.7496 15.2823 22.827 15.3409 22.8993 15.4051C22.9631 15.4621 23.0111 15.5264 23.0347 15.6077C23.0826 15.7725 23.1201 15.9404 23.1685 16.1055C23.2384 16.3469 23.2916 16.5925 23.3645 16.8331L23.3648 16.8321Z" fill="#EFB124"/>
<path d="M24.2276 12.4416C24.194 12.4311 24.1674 12.408 24.1437 12.3851C24.0886 12.331 24.0201 12.2944 23.9633 12.2412C23.9095 12.1906 23.8482 12.1474 23.7907 12.1005C23.7302 12.0515 23.6682 12.073 23.6347 12.1419C23.5993 12.214 23.5748 12.2904 23.5429 12.3635C23.5094 12.4399 23.4805 12.5192 23.4472 12.596C23.402 12.7015 23.3619 12.8085 23.3152 12.9134C23.2758 13.003 23.2407 13.0947 23.2034 13.1855C23.1634 13.2836 23.1255 13.3826 23.0823 13.4796C23.0669 13.5144 23.0543 13.5494 23.0302 13.5799C22.9853 13.6372 22.9213 13.6694 22.863 13.7092C22.778 13.7674 22.6901 13.8213 22.603 13.8768C22.5272 13.9252 22.4514 13.9736 22.375 14.0212C22.3244 14.0529 22.2781 14.0919 22.2258 14.1221C22.1127 14.1875 22.0109 14.2697 21.8974 14.3339C21.8301 14.3717 21.769 14.4187 21.7038 14.4588C21.6454 14.4947 21.6331 14.5694 21.7071 14.6237C21.7466 14.6533 21.7829 14.687 21.8207 14.7189C21.8721 14.7622 21.9211 14.8085 21.9757 14.8478C22.0212 14.8805 22.057 14.9232 22.102 14.956C22.1568 14.9961 22.2083 15.0413 22.259 15.0872C22.3165 15.1393 22.3766 15.1888 22.4361 15.238C22.4946 15.287 22.5526 15.3375 22.613 15.3846C22.6976 15.4508 22.7792 15.5205 22.8568 15.5944C22.8934 15.629 22.9214 15.6741 22.9275 15.7291C22.933 15.7763 22.9558 15.8195 22.968 15.8649C23.0245 16.0817 23.0768 16.3 23.1373 16.5158C23.1726 16.6426 23.2027 16.7709 23.2422 16.8958C23.2694 16.9832 23.2902 17.0717 23.315 17.1593C23.3337 17.225 23.4015 17.2497 23.459 17.212C23.5569 17.1477 23.6586 17.0889 23.7581 17.0269C23.8613 16.9626 23.9659 16.9003 24.0681 16.8343C24.1265 16.7969 24.1879 16.7639 24.2461 16.7256C24.3036 16.688 24.3662 16.6579 24.4209 16.6186C24.4721 16.5822 24.5268 16.5504 24.5805 16.5202C24.6588 16.4763 24.7254 16.4083 24.8207 16.3942C24.8677 16.3872 24.9145 16.385 24.9621 16.3859C25.0471 16.3879 25.1313 16.3981 25.2169 16.3986C25.2733 16.3991 25.3302 16.405 25.3867 16.4078C25.4527 16.411 25.5185 16.4151 25.5853 16.4157C25.6398 16.4162 25.696 16.4229 25.7512 16.426C25.8884 16.4342 26.0255 16.4476 26.1627 16.4503C26.2368 16.4519 26.3103 16.4606 26.384 16.4627C26.4441 16.4646 26.4969 16.4071 26.4876 16.3487C26.4629 16.1939 26.4116 16.0454 26.378 15.8924C26.314 15.599 26.2339 15.3103 26.1615 15.0191C26.1475 14.9643 26.1333 14.9091 26.1273 14.8527C26.1205 14.7933 26.1341 14.7347 26.159 14.6801C26.187 14.6192 26.2034 14.5534 26.2297 14.4929C26.2523 14.4404 26.2722 14.3862 26.2938 14.333C26.313 14.2856 26.3344 14.239 26.353 14.1908C26.3867 14.1027 26.4224 14.0151 26.4525 13.926C26.4844 13.8309 26.5288 13.7406 26.5591 13.6446C26.5776 13.5851 26.608 13.5297 26.6295 13.4709C26.6476 13.4209 26.6679 13.3718 26.6856 13.322C26.7004 13.2794 26.6832 13.2432 26.6475 13.2159C26.6389 13.2097 26.6314 13.2023 26.6231 13.1955C26.6655 13.1926 26.6819 13.2253 26.7012 13.253C26.7106 13.2899 26.7057 13.3257 26.6921 13.3605C26.6595 13.4417 26.6274 13.5233 26.5958 13.6048C26.5725 13.664 26.5503 13.7239 26.5275 13.783C26.488 13.8852 26.4482 13.9879 26.4083 14.0901C26.3669 14.1956 26.3307 14.3035 26.2882 14.4083C26.2555 14.4877 26.2254 14.5678 26.1922 14.6469C26.1748 14.6887 26.1522 14.7323 26.1486 14.7767C26.1452 14.8164 26.1404 14.8582 26.1514 14.8993C26.1865 15.0324 26.2216 15.1654 26.2522 15.2995C26.3142 15.5686 26.3798 15.8373 26.4471 16.105C26.4577 16.1462 26.4665 16.1878 26.4823 16.2277C26.503 16.2789 26.5036 16.3344 26.5081 16.3883C26.5114 16.4253 26.4658 16.4669 26.42 16.4712C26.3504 16.4778 26.2808 16.4681 26.2115 16.4667C26.1512 16.4659 26.0913 16.4588 26.0305 16.458C25.967 16.4571 25.9027 16.4516 25.8388 16.4474C25.71 16.4393 25.5811 16.4285 25.452 16.4266C25.33 16.4247 25.209 16.4118 25.0873 16.4075C25.0129 16.4046 24.9384 16.4032 24.8642 16.4008C24.8272 16.3995 24.7892 16.4065 24.762 16.427C24.7077 16.4675 24.6438 16.4909 24.59 16.5337C24.5405 16.573 24.481 16.6004 24.4266 16.6335C24.3228 16.6971 24.2194 16.7605 24.1158 16.8245C23.9477 16.9283 23.7789 17.0309 23.6119 17.1373C23.56 17.1707 23.5059 17.1995 23.4529 17.2304C23.4349 17.2407 23.4158 17.2376 23.3981 17.2435C23.3434 17.2426 23.3133 17.2148 23.2961 17.1496C23.2846 17.1049 23.2732 17.0602 23.2611 17.0152C23.1825 16.7195 23.1065 16.4232 23.0243 16.1285C22.989 16.0016 22.9567 15.8739 22.9223 15.7472C22.9001 15.6642 22.8525 15.5993 22.7843 15.5476C22.7156 15.4957 22.6527 15.437 22.5869 15.3815C22.4778 15.289 22.3646 15.2007 22.2566 15.107C22.1762 15.0369 22.0941 14.9692 22.0131 14.9003C21.9057 14.8088 21.7967 14.7185 21.6892 14.6269C21.6303 14.5766 21.6236 14.4938 21.7008 14.4418C21.8033 14.373 21.9073 14.3066 22.0093 14.2379C22.0609 14.2032 22.1165 14.173 22.1687 14.1391C22.2845 14.0636 22.3995 13.9869 22.5157 13.9113C22.6102 13.8502 22.7063 13.7914 22.8001 13.729C22.8706 13.682 22.948 13.6435 23.0072 13.5801C23.0463 13.5384 23.0663 13.4865 23.085 13.435C23.1049 13.3794 23.1302 13.3262 23.1523 13.2715C23.186 13.1872 23.223 13.1043 23.2535 13.0185C23.2695 12.9728 23.2901 12.9287 23.3091 12.8841C23.3315 12.8307 23.3545 12.7777 23.3769 12.7243C23.4058 12.6557 23.4347 12.5875 23.463 12.5186C23.5103 12.4027 23.5565 12.2867 23.6041 12.1708C23.6139 12.1468 23.6247 12.123 23.6383 12.1008C23.6655 12.055 23.743 12.0426 23.7862 12.0741C23.8186 12.098 23.8457 12.1284 23.8819 12.1472C23.8886 12.1641 23.9063 12.1689 23.9192 12.1792C24.006 12.2504 24.0934 12.3204 24.1797 12.3917C24.1975 12.4063 24.2232 12.4133 24.23 12.4396L24.2276 12.4416Z" fill="#F4C445"/>
<path d="M25.3297 13.1021C25.3586 13.0905 25.3875 13.1046 25.4166 13.1027C25.4467 13.1011 25.4774 13.1054 25.5078 13.1069C25.5845 13.1134 25.6611 13.1194 25.7379 13.1263C25.7701 13.1293 25.8017 13.1282 25.8339 13.1256C25.838 13.1268 25.8416 13.1282 25.8457 13.1295C25.9071 13.1437 25.9702 13.1429 26.0324 13.1475C26.1505 13.1565 26.2687 13.1635 26.3867 13.1739C26.3873 13.1761 26.3879 13.1783 26.3884 13.1805C26.3241 13.1914 26.2609 13.1753 26.1973 13.1744C26.0894 13.1726 25.9829 13.1541 25.8748 13.1534C25.8188 13.1528 25.7617 13.1441 25.7047 13.1377C25.6473 13.1314 25.589 13.1309 25.5312 13.127C25.4711 13.1229 25.4111 13.1177 25.3512 13.1129C25.3431 13.1122 25.3346 13.1102 25.3301 13.102L25.3297 13.1021Z" fill="#F4C445"/>
<path d="M26.6084 13.1988C26.6048 13.2011 26.6002 13.207 26.5971 13.2059C26.5371 13.1895 26.4752 13.2007 26.4151 13.1914C26.4079 13.1904 26.4016 13.1879 26.3976 13.1814C26.4495 13.1662 26.5003 13.185 26.5513 13.1882C26.5699 13.1895 26.5922 13.181 26.6084 13.1988Z" fill="#F4C445"/>
<path d="M26.3883 13.1817C26.3877 13.1793 26.3876 13.1767 26.3864 13.1745C26.3903 13.1755 26.3937 13.1767 26.3976 13.1778C26.3942 13.1786 26.3911 13.1805 26.3878 13.1818L26.3883 13.1817Z" fill="#BBCECF"/>
<path d="M26.619 13.1979L26.6208 13.1975L26.6199 13.194L26.619 13.1979Z" fill="#F4C445"/>
<path d="M23.3648 16.8321C23.2918 16.5915 23.2385 16.3454 23.1688 16.1045C23.1207 15.9393 23.0834 15.7718 23.035 15.6067C23.0114 15.5258 22.9638 15.4609 22.8995 15.4041C22.8271 15.3395 22.7498 15.2813 22.6788 15.215C22.6047 15.1457 22.5232 15.0839 22.445 15.0185C22.3517 14.9401 22.2588 14.8616 22.1656 14.7832C22.0675 14.7009 21.9695 14.6186 21.8704 14.5379C21.8532 14.5237 21.839 14.5068 21.8202 14.4938C21.7973 14.4777 21.8199 14.4635 21.8309 14.4551C21.8605 14.4335 21.8922 14.4142 21.9232 14.3945C22.056 14.3105 22.1892 14.2263 22.3204 14.1394C22.4656 14.0437 22.6134 13.9521 22.7557 13.8521C22.838 13.7945 22.9268 13.7456 23.0112 13.6908C23.1034 13.6311 23.1554 13.5431 23.1967 13.4428C23.247 13.3205 23.2924 13.1958 23.3473 13.0752C23.3957 12.9675 23.4371 12.8564 23.4818 12.7473C23.5139 12.6695 23.5487 12.5928 23.5783 12.5142C23.6106 12.4284 23.6529 12.3461 23.6801 12.2583C23.6858 12.2404 23.6966 12.2241 23.7034 12.2065C23.7184 12.1681 23.7244 12.1642 23.7586 12.1895C23.8054 12.2238 23.8497 12.261 23.8951 12.2975C24.0499 12.4217 24.2058 12.5448 24.3584 12.6715C24.4682 12.763 24.5816 12.8502 24.6921 12.941C24.7498 12.9883 24.8036 13.0409 24.8645 13.0827C24.9259 13.1244 24.995 13.1525 25.072 13.1584C25.1687 13.1658 25.2657 13.169 25.3623 13.1816C25.4453 13.1925 25.5299 13.1895 25.614 13.1955C25.7368 13.2042 25.8595 13.2162 25.9824 13.2253C26.0542 13.2307 26.1265 13.2327 26.1985 13.2376C26.2577 13.2416 26.3169 13.2474 26.3762 13.2518C26.4116 13.2544 26.447 13.257 26.4825 13.2582C26.5085 13.259 26.5204 13.2653 26.51 13.2941C26.4588 13.4329 26.4082 13.5721 26.3508 13.7087C26.3275 13.7642 26.3089 13.8213 26.2871 13.8773C26.2534 13.9654 26.2192 14.0532 26.185 14.1413C26.1418 14.2529 26.0984 14.3635 26.0558 14.4753C26.0304 14.5426 26.0038 14.6092 25.9847 14.6791C25.9677 14.7409 25.9794 14.801 25.9884 14.8617C25.9912 14.8801 25.9978 14.8985 26.0026 14.9169C26.0685 15.207 26.1482 15.4939 26.2155 15.7836C26.2491 15.9292 26.2875 16.0735 26.3223 16.2183C26.3301 16.2504 26.3201 16.259 26.2895 16.257C26.1725 16.2506 26.0557 16.2451 25.9383 16.2392C25.8152 16.233 25.692 16.2263 25.569 16.2204C25.3993 16.2121 25.2302 16.2036 25.061 16.197C24.9994 16.1946 24.9385 16.1859 24.8768 16.1849C24.7869 16.1837 24.7056 16.2106 24.6303 16.2552C24.5171 16.3225 24.4057 16.3931 24.2942 16.4629C24.1425 16.5574 23.9925 16.6547 23.8386 16.746C23.7282 16.8113 23.6248 16.8873 23.5102 16.9457C23.4862 16.9579 23.4658 16.9772 23.4425 16.9906C23.4225 17.0023 23.4073 16.9996 23.4012 16.9722C23.3905 16.925 23.377 16.878 23.365 16.8311L23.3648 16.8321ZM22.1222 14.4771C22.1309 14.4763 22.1367 14.4767 22.1423 14.4747C22.2578 14.4423 22.3751 14.4169 22.4902 14.3808C22.6225 14.3389 22.7545 14.2957 22.8852 14.2491C23.0223 14.2004 23.1564 14.1431 23.2904 14.0859C23.3788 14.0482 23.4674 14.0115 23.5533 13.968C23.5778 13.9556 23.5912 13.9419 23.5955 13.9165C23.6073 13.849 23.624 13.7826 23.6393 13.7161C23.6722 13.5717 23.6986 13.4261 23.7255 13.2805C23.7405 13.1981 23.7507 13.1152 23.7613 13.0321C23.7708 12.9558 23.7823 12.88 23.7881 12.8038C23.7934 12.7295 23.7985 12.6558 23.8047 12.5813C23.807 12.5537 23.8065 12.5262 23.8005 12.4974C23.7797 12.506 23.773 12.5236 23.7662 12.5394C23.7157 12.6588 23.6606 12.7767 23.6139 12.8984C23.5717 13.0097 23.531 13.122 23.4944 13.2351C23.4439 13.3915 23.4031 13.5505 23.3562 13.7079C23.3509 13.7256 23.3542 13.7495 23.3285 13.7607C23.2609 13.7898 23.1976 13.8284 23.1314 13.8594C22.9687 13.9348 22.8133 14.0237 22.6571 14.1114C22.5849 14.1519 22.5152 14.1969 22.4455 14.2414C22.3512 14.3016 22.2586 14.3631 22.1707 14.4319C22.1547 14.4445 22.1289 14.4464 22.1231 14.4769L22.1222 14.4771ZM23.5556 16.6672C23.5561 16.6344 23.5598 16.605 23.5564 16.5769C23.548 16.5113 23.5451 16.4452 23.5399 16.3793C23.5359 16.3252 23.5338 16.2711 23.5302 16.2169C23.5222 16.1017 23.5092 15.9868 23.502 15.8709C23.4915 15.7003 23.4777 15.5295 23.4655 15.3594C23.4628 15.325 23.4394 15.3273 23.4163 15.3323C23.348 15.3475 23.2796 15.3608 23.2099 15.3707C23.1877 15.3736 23.1794 15.3851 23.1862 15.4081C23.2318 15.5585 23.277 15.709 23.3218 15.8597C23.3499 15.9548 23.3751 16.0511 23.4003 16.1474C23.4441 16.3128 23.5029 16.4743 23.5376 16.6425C23.5396 16.6503 23.5404 16.659 23.5553 16.6678L23.5556 16.6672Z" fill="#F4C445"/>
<path d="M24.5641 12.7108C24.6188 12.7374 24.6593 12.7821 24.7058 12.8188C24.7723 12.8714 24.8381 12.925 24.9043 12.9781C24.9137 12.9855 24.9238 12.9918 24.9261 13.0048C24.913 13.0086 24.9039 13.0039 24.8945 12.9947C24.798 12.9059 24.6928 12.8268 24.5883 12.7485C24.5744 12.7381 24.5688 12.7255 24.5641 12.7108Z" fill="#F4C445"/>
<path d="M24.2304 12.4432C24.2676 12.4528 24.2899 12.4849 24.3188 12.506C24.3934 12.5611 24.4642 12.6215 24.5367 12.679C24.5456 12.6861 24.5536 12.692 24.5535 12.7041C24.5101 12.6961 24.4821 12.6617 24.4521 12.6362C24.3852 12.5786 24.3152 12.5251 24.2476 12.4682C24.2386 12.4607 24.233 12.4533 24.23 12.4433L24.2304 12.4432Z" fill="#F4C445"/>
<path d="M24.9305 13.0106C24.956 13.0097 24.9697 13.0319 24.9884 13.0425C25.0441 13.0749 25.1046 13.0804 25.1663 13.0852C25.2089 13.0883 25.2516 13.0922 25.2943 13.0958C25.3006 13.0965 25.3054 13.099 25.3087 13.1042C25.2392 13.1062 25.1703 13.0991 25.1012 13.0948C25.0479 13.0917 25.0038 13.0717 24.9609 13.0435C24.948 13.0351 24.9354 13.0262 24.9309 13.0105L24.9305 13.0106Z" fill="#F4C445"/>
<path d="M24.5564 12.7063C24.5564 12.7063 24.5619 12.7096 24.5647 12.7112C24.5619 12.7096 24.5592 12.7079 24.5564 12.7063Z" fill="#F4C445"/>
<path d="M22.1222 14.4771C22.128 14.4466 22.1538 14.4447 22.1698 14.4322C22.2577 14.3634 22.3507 14.3017 22.4446 14.2416C22.5144 14.1971 22.5844 14.152 22.6562 14.1117C22.8124 14.0239 22.968 13.9355 23.1305 13.8597C23.1972 13.8286 23.26 13.79 23.3276 13.761C23.3533 13.7497 23.35 13.7258 23.3553 13.7081C23.4022 13.5508 23.4429 13.3913 23.4935 13.2354C23.5301 13.1222 23.5703 13.0101 23.6131 12.8987C23.6593 12.777 23.7145 12.6596 23.7654 12.5396C23.772 12.5234 23.7784 12.5063 23.7996 12.4976C23.8056 12.5265 23.8061 12.5539 23.8038 12.5816C23.7979 12.6555 23.7926 12.7298 23.7872 12.804C23.7814 12.8803 23.77 12.9565 23.7604 13.0323C23.7503 13.1153 23.7401 13.1983 23.7247 13.2807C23.6982 13.4263 23.6713 13.5719 23.6384 13.7163C23.6231 13.7828 23.6064 13.8493 23.5946 13.9167C23.5903 13.9421 23.5765 13.956 23.5524 13.9682C23.4665 14.0117 23.3779 14.0485 23.2895 14.0861C23.1555 14.1434 23.0219 14.2005 22.8843 14.2494C22.7536 14.296 22.6216 14.3392 22.4893 14.3811C22.3742 14.4171 22.257 14.443 22.1414 14.475C22.1361 14.4763 22.1299 14.4761 22.1213 14.4773L22.1222 14.4771Z" fill="#F7D480"/>
<path d="M23.5556 16.6673C23.5407 16.6585 23.5395 16.6499 23.5379 16.6419C23.5032 16.4738 23.4445 16.3127 23.4006 16.1469C23.3751 16.0511 23.3503 15.9547 23.3221 15.8591C23.2773 15.7085 23.2322 15.558 23.1865 15.4076C23.1797 15.3846 23.1881 15.3735 23.2103 15.3702C23.2796 15.3608 23.3483 15.3469 23.4167 15.3317C23.4398 15.3267 23.4631 15.3245 23.4658 15.3588C23.4782 15.5294 23.4918 15.6997 23.5023 15.8704C23.5094 15.9858 23.5224 16.1007 23.5305 16.2163C23.5341 16.2705 23.5362 16.3246 23.5403 16.3787C23.545 16.4448 23.5482 16.5103 23.5567 16.5764C23.5603 16.6049 23.5566 16.6343 23.556 16.6667L23.5556 16.6673Z" fill="#F7D480"/>
</svg>
