<?xml version="1.0" encoding="UTF-8"?>
<svg id="Layer_1" data-name="Layer 1" xmlns="http://www.w3.org/2000/svg" version="1.1" viewBox="0 0 23 27">
  <defs>
    <style>
      .cls-1 {
        fill: #e4e5e6;
      }

      .cls-1, .cls-2, .cls-3, .cls-4, .cls-5, .cls-6, .cls-7, .cls-8, .cls-9, .cls-10, .cls-11, .cls-12 {
        stroke-width: 0px;
      }

      .cls-2 {
        fill: #7c4028;
      }

      .cls-3 {
        fill: #ced0d2;
      }

      .cls-4 {
        fill: #f6d37e;
      }

      .cls-5 {
        fill: #eeb126;
      }

      .cls-6 {
        fill: #f3c345;
      }

      .cls-7 {
        fill: #cc8437;
      }

      .cls-8 {
        fill: #f2dfcb;
      }

      .cls-9 {
        fill: #fefefe;
      }

      .cls-10 {
        fill: #e8ba8c;
      }

      .cls-11 {
        fill: #fff;
        fill-opacity: .8;
      }

      .cls-12 {
        fill: #f6d37f;
      }
    </style>
  </defs>
  <g>
    <path class="cls-7" d="M5.8,24.5h0c-.2,0-.2-.1-.3-.3-.2-.5-.3-1.1-.3-1.6s0-.9,0-1.4v-.4h0c0-.1,0-.1.2-.1h13.7v.4c0,.6,0,1.2-.2,1.7,0,.5-.1.9-.3,1.3,0,.2-.2.3-.4.3H5.8h0Z"/>
    <path class="cls-1" d="M5.9,2.9v-.4h2c0,0,.2.2.3.2.3,0,.5,0,.8,0h2c0,0-.1,0-.2,0h-4.8c0,0-.2,0-.2-.2v.3Z"/>
    <path class="cls-8" d="M6.9,24.5h-1.2,1.2Z"/>
    <path class="cls-2" d="M5,20.7c0-.4,0-.8,0-1.2,0-.8,0-1.7-.2-2.5,0-.5,0-.4.4-.4h2.9c.3,0,.4,0,.5.3.4.7.9,1.3,1.7,1.7,1.4.7,3.1.5,4.4-.5.4-.4.7-.8,1-1.2,0-.2.2-.2.4-.2h3.1s.1,0,.1.2v.2c0,1.2-.2,2.5-.3,3.7h0c0,.1-.2.1-.3.1H5v-.2Z"/>
    <path class="cls-2" d="M4.5,13.4v-.3c0-1.6-.3-3.2-.3-4.8s0-.1,0-.1h15.3q.2,0,.2.2c0,1.4-.2,2.8-.3,4.2v.9h-3.4c-.2,0-.3,0-.4-.3-.5-1-1.3-1.6-2.3-2-.8-.3-1.5-.2-2.3,0-.7.2-1.2.5-1.7,1s-.5.6-.7,1c-.1.2-.3.3-.5.3h-3.7Z"/>
    <path class="cls-7" d="M19.7,8.3s0-.1-.1-.1H4.1v-2.4q0-.2.2-.2h15s.1,0,.2,0c0,.4,0,.8.1,1.2v1.3h0Z"/>
    <path class="cls-10" d="M4.5,13.4h3.4c.2,0,.4,0,.5-.3.5-.9,1.2-1.5,2.1-1.9,2.2-.8,4.3.3,5.1,2,0,0,0,.1.2.1h3.6c0,1-.1,1.9-.2,2.9v.6c0-.2-.1-.3-.3-.3h-2.9c-.2,0-.3,0-.4.2-.6,1.2-1.6,1.9-2.9,2.1-1.6.3-3.3-.3-4.3-2.1,0-.2-.2-.2-.4-.2h-3.1q-.2,0-.2.2h0v-.5c0-.9,0-1.8-.2-2.7v-.2h0Z"/>
    <path class="cls-1" d="M19.6,5.9H4.4s-.2,0-.2,0c0,0,0,0,0,0h-.4c-.2,0-.3-.2-.3-.4v-1c0-.3,0-.5.5-.5h15c.2,0,.3,0,.4-.2h0c0,.1.1.2.3.2h.5c.3,0,.4.2.4.4v.9c0,.4-.2.5-.5.5h-.4Z"/>
    <path class="cls-3" d="M19.2,3.6c0,.2-.1.3-.3.3H4.5v-.6c0-.2.2-.4.4-.4h.9c0,.2,0,.2.3.2h3c0,0,.2,0,.3,0h9.2c.4,0,.5.2.5.5v.2h0Z"/>
    <path class="cls-9" d="M11.9,18.4c-1.7,0-3.4-1.4-3.4-3.4s1.6-3.4,3.4-3.4,3.4,1.5,3.4,3.4-1.5,3.3-3.4,3.3h0Z"/>
    <path class="cls-5" d="M13.6,16.9c-.1,0-.3,0-.5-.1-.3,0-.6-.2-.9-.3h-.3c-.4.1-.8.3-1.2.4q-.2,0-.2-.2v-1.6c-.3-.3-.5-.7-.8-1q-.1-.2.1-.3c.4-.1.8-.3,1.2-.4.1,0,.2-.1.3-.2.3-.3.5-.7.8-1,.1-.2.2-.2.3,0,.3.3.5.7.8,1,0,.1.2.2.3.2.4.1.8.3,1.2.4.2,0,.2.1.1.3-.3.4-.5.7-.8,1.1v1.6s0,.2-.1.2h-.3Z"/>
    <path class="cls-6" d="M10.5,15.9v-.2c0-.4,0-.7-.3-1s-.4-.5-.5-.7v-.2c.4-.1.8-.3,1.1-.4.2,0,.3-.2.4-.3.2-.3.5-.6.7-.9,0-.1.1-.1.2,0,.2.3.5.7.8,1,0,0,.2.1.3.2.4.1.8.2,1.1.4q.2,0,0,.2c-.2.3-.4.6-.6.9-.1.1-.2.3-.2.5v1.2q0,.1-.1.1c-.4-.1-.7-.2-1.1-.3h-.5c-.4.1-.7.2-1.1.4-.1,0-.2,0-.2-.1v-.6h0v-.2Z"/>
    <path class="cls-12" d="M10,13.9h.2c.3-.1.6-.2,1-.3,0,0,.1,0,.2-.1.2-.3.4-.6.6-.9h0c-.1.4-.3.8-.5,1.1,0,0,0,.1-.2.2-.4,0-.9.1-1.3.1h0Z"/>
    <path class="cls-4" d="M10.8,16.3v-1.3h.2c0,.5-.1.8-.2,1.2h0Z"/>
  </g>
  <g>
    <path class="cls-11" d="M19,20.6h-7.1v3.8h6.6c.2,0,.3-.1.4-.3.1-.4.2-.9.3-1.4,0-.6.1-1.2.2-1.8v-.4h-.5Z"/>
    <path class="cls-11" d="M20.4,3.9h-.5c-.2,0-.3,0-.3-.2,0-.2,0,0,0,0v-.2c0-.4-.1-.5-.5-.5h-7.3v17.8h7.4c0-1.3.2-2.6.3-3.8h0v-.6c0-1,.1-1.9.2-2.9h0v-.9c0-1.4.2-2.8.3-4.2v-1.3c0-.4,0-.8-.1-1.2h.4c.3,0,.5,0,.5-.5v-.9c0-.3-.2-.4-.4-.4v-.2Z"/>
  </g>
</svg>