<svg width="25" height="31" viewBox="0 0 25 31" fill="none" xmlns="http://www.w3.org/2000/svg">
<path d="M23.1076 7.71224C23.1486 8.03151 23.087 8.34759 23.0787 8.66494C23.0659 9.17386 23.0313 9.68277 22.9973 10.191C22.9505 10.8947 22.8947 11.5977 22.8453 12.3014C22.7985 12.9738 22.7671 13.6475 22.7049 14.3179C22.6722 14.6717 22.7049 15.0305 22.6273 15.3804C20.9096 15.3811 19.1919 15.3804 17.4741 15.3849C17.3619 15.3849 17.3036 15.3485 17.2568 15.2464C16.9266 14.5261 16.4688 13.8971 15.868 13.3786C14.5702 12.258 13.0615 11.7823 11.3605 12.0134C9.41706 12.2778 7.98595 13.3103 7.07162 15.0324C6.928 15.3025 6.79015 15.3939 6.48815 15.3907C4.8557 15.3728 3.22326 15.3804 1.59081 15.3792C1.57863 15.2744 1.56132 15.1691 1.55426 15.0637C1.51451 14.4712 1.47924 13.8786 1.43757 13.2867C1.38243 12.5096 1.31703 11.7325 1.26701 10.9554C1.22534 10.3105 1.16635 9.66617 1.15032 9.01933C1.1407 8.63749 1.11569 8.25628 1.09902 7.87507C1.09646 7.82271 1.10479 7.76971 1.108 7.71671C1.11377 7.76907 1.12275 7.82143 1.12467 7.87379C1.13108 8.09473 1.13044 8.09473 1.35934 8.09537C1.37537 8.09537 1.3914 8.09537 1.40743 8.09537C8.54826 8.09537 15.6891 8.09537 22.8299 8.09537C22.878 8.09537 22.9261 8.09281 22.9742 8.09409C23.0543 8.09664 23.0883 8.06089 23.0902 7.97979C23.0928 7.8904 23.0768 7.79909 23.1076 7.71097V7.71224Z" fill="#7C4028"/>
<path d="M21.8977 25.6801C21.8694 26.3333 21.8111 26.984 21.7425 27.6334C21.645 28.5586 21.5232 29.4794 21.2648 30.3772C21.2603 30.3925 21.2565 30.4078 21.252 30.4231C21.1096 30.8988 21.0808 30.9199 20.5916 30.9199C14.962 30.9199 9.33243 30.9199 3.70222 30.9199C3.65477 30.9199 3.60668 30.925 3.55924 30.9282C3.47524 30.888 3.39894 30.9691 3.31046 30.9384C3.1585 30.8848 3.09053 30.7667 3.03667 30.6294C2.83855 30.1224 2.74814 29.5879 2.65966 29.056C2.48462 27.9992 2.391 26.9329 2.32304 25.864C2.31855 25.7956 2.32625 25.7267 2.32817 25.6584C2.38139 25.6584 2.43461 25.6596 2.48782 25.6596C8.86757 25.6596 15.2467 25.6596 21.6264 25.6603C21.7168 25.6603 21.8079 25.6501 21.8964 25.6794L21.8977 25.6801Z" fill="#CD8537"/>
<path d="M21.8977 25.6801C21.8092 25.6513 21.7181 25.6609 21.6277 25.6609C15.248 25.6609 8.86887 25.6609 2.48912 25.6603C2.43591 25.6603 2.38269 25.6596 2.32947 25.659C2.26471 25.1699 2.24355 24.6782 2.20829 24.1865C2.14289 23.2824 2.05056 22.3801 2.0076 21.4753C1.98131 20.9255 1.90821 20.3783 1.91591 19.8266C1.96336 19.8241 2.01144 19.8196 2.05953 19.8196C3.61119 19.8196 5.16285 19.8215 6.71515 19.8164C6.85428 19.8164 6.91648 19.8649 6.97739 19.9856C7.97122 21.9632 9.57481 23.078 11.7907 23.2268C14.1375 23.3845 16.2623 22.0838 17.2568 19.9562C17.3049 19.8541 17.3607 19.8164 17.4729 19.817C18.1076 19.8221 18.7418 19.8183 19.3765 19.8196C20.3524 19.8209 21.3283 19.8228 22.3042 19.8247C22.3112 20.1223 22.2753 20.4173 22.2554 20.7135C22.2009 21.529 22.1516 22.3444 22.0926 23.1591C22.0323 23.9995 21.9637 24.8398 21.8983 25.6801H21.8977Z" fill="#7C4028"/>
<path d="M23.1076 7.71228C23.0768 7.80039 23.0928 7.89171 23.0902 7.9811C23.0877 8.0622 23.0537 8.09795 22.9742 8.0954C22.9261 8.09412 22.878 8.09668 22.8299 8.09668C15.6891 8.09668 8.54826 8.09668 1.40743 8.09668C1.3914 8.09668 1.37537 8.09668 1.35934 8.09668C1.13044 8.09668 1.13108 8.09668 1.12467 7.8751C1.12339 7.82274 1.11377 7.77038 1.108 7.71802C1.108 7.38471 1.10864 7.05075 1.10928 6.71743C1.13365 6.56674 1.12916 6.41477 1.12275 6.2628C1.13237 5.72259 1.18815 5.18686 1.27022 4.65304C1.37153 4.65113 1.47283 4.64793 1.57414 4.64793C8.513 4.64793 15.4519 4.64793 22.3907 4.64793C22.5773 4.64793 22.7639 4.64985 22.9505 4.65113C23.0248 5.21623 23.089 5.78262 23.0941 6.35283C23.0858 6.47607 23.0793 6.59931 23.105 6.7219C23.105 7.05267 23.1063 7.38279 23.1063 7.71355L23.1076 7.71228Z" fill="#CD8537"/>
<path d="M22.3029 19.8247C21.327 19.8228 20.3511 19.8209 19.3752 19.8196C18.7405 19.8189 18.1063 19.8221 17.4716 19.817C17.3594 19.8164 17.3029 19.8541 17.2555 19.9562C16.261 22.0838 14.1361 23.3845 11.7894 23.2268C9.57351 23.078 7.96991 21.9632 6.97608 19.9856C6.91517 19.8643 6.85298 19.8158 6.71384 19.8164C5.16218 19.8215 3.61053 19.8196 2.05823 19.8196C2.01014 19.8196 1.96269 19.8241 1.9146 19.8266C1.85241 19.605 1.86459 19.3758 1.84792 19.1498C1.75687 17.9244 1.67288 16.699 1.58696 15.4737C1.58504 15.4424 1.58952 15.4105 1.59081 15.3786C3.22325 15.3798 4.8557 15.3722 6.48814 15.39C6.79014 15.3932 6.92799 15.3019 7.07162 15.0318C7.9853 13.3103 9.41706 12.2772 11.3605 12.0128C13.0615 11.7817 14.5702 12.2567 15.868 13.378C16.4688 13.8971 16.9272 14.5261 17.2568 15.2457C17.3036 15.3485 17.3619 15.3849 17.4741 15.3843C19.1919 15.3805 20.9096 15.3811 22.6273 15.3798C22.5767 16.1314 22.5273 16.8836 22.4747 17.6351C22.4279 18.3075 22.3785 18.9799 22.3304 19.6523C22.3259 19.7104 22.3311 19.7698 22.3022 19.8234L22.3029 19.8247ZM16.8823 17.6358C16.9516 15.0044 14.7324 12.8531 12.1549 12.8308C9.48502 12.8078 7.37682 14.9884 7.32424 17.4768C7.26654 20.1931 9.45232 22.3622 12.0844 22.3737C14.744 22.3852 16.9169 20.2078 16.8823 17.6358Z" fill="#E9BB8D"/>
<path d="M22.9511 4.64983C22.7645 4.64855 22.5779 4.64664 22.3913 4.64664C15.4525 4.64664 8.51362 4.64664 1.57476 4.64664C1.47345 4.64664 1.37214 4.64983 1.27084 4.65175C1.09002 4.64983 0.909211 4.64791 0.728398 4.64472C0.537326 4.64153 0.36036 4.59364 0.206477 4.47615C0.0711878 4.37398 -0.00126563 4.24436 1.67336e-05 4.06876C0.00386382 3.60263 0.000657914 3.13586 1.67336e-05 2.66972C1.67336e-05 2.2419 0.187883 2.03757 0.624527 1.99032C0.641198 1.98713 0.657868 1.98457 0.674539 1.98138C0.697621 1.98138 0.720063 1.98138 0.743145 1.98138C0.763022 1.9999 0.782899 1.9999 0.802775 1.98138C0.985512 1.98138 1.16889 1.98138 1.35163 1.98138C1.36124 1.98138 1.37022 1.98138 1.37984 1.98138C1.43434 1.98138 1.4882 1.98074 1.5427 1.9801C1.56322 1.99862 1.58309 1.99862 1.60361 1.9801C1.62669 1.97691 1.64977 1.97436 1.67222 1.97116C8.62839 1.97116 15.5846 1.97116 22.5407 1.97116C22.5638 1.97436 22.5863 1.97691 22.6093 1.9801C22.6196 1.9801 22.6292 1.9801 22.6395 1.9801C22.9325 1.97819 23.2268 1.96159 23.5192 1.97883C23.8321 1.99734 24.1052 2.10526 24.2174 2.43921C24.2161 2.94813 24.2149 3.45768 24.2142 3.96659C24.2142 4.34716 24.0469 4.55277 23.6673 4.62557C23.43 4.6709 23.189 4.63323 22.9498 4.64919L22.9511 4.64983Z" fill="#E5E6E7"/>
<path d="M22.542 1.97178C15.5859 1.97178 8.62969 1.97178 1.67352 1.97178C1.67545 1.71828 1.67801 1.46414 1.67993 1.21064C1.68314 0.770689 1.9441 0.507612 2.38331 0.507612C2.81867 0.507612 3.25403 0.510166 3.6894 0.512082C3.7003 0.713221 3.74582 0.75728 3.95549 0.75728C5.19809 0.757919 6.4407 0.75728 7.68331 0.75728C7.84874 0.75728 8.01416 0.75728 8.17894 0.756003C8.24306 0.755364 8.3309 0.756003 8.34309 0.686402C8.37707 0.499311 8.51236 0.528045 8.63803 0.528045C12.9416 0.528045 17.2452 0.528045 21.5488 0.527406C21.6341 0.527406 21.7188 0.520383 21.804 0.516551C21.838 0.503781 21.872 0.503781 21.906 0.516551C21.9881 0.593814 22.1003 0.565719 22.1952 0.597007C22.4407 0.713859 22.5273 0.925215 22.5337 1.17808C22.5408 1.44243 22.5388 1.70679 22.5408 1.97178H22.542Z" fill="#CFD1D3"/>
<path d="M21.8053 0.516577C21.72 0.520408 21.6354 0.527432 21.5501 0.527432C17.2465 0.527432 12.9429 0.527432 8.63931 0.528071C8.51364 0.528071 8.37835 0.499337 8.34436 0.686428C8.33154 0.756029 8.24434 0.754752 8.18022 0.756029C8.0148 0.757944 7.84937 0.757306 7.68459 0.757306C6.44198 0.757306 5.19937 0.757306 3.95676 0.757306C3.74646 0.757306 3.70093 0.713247 3.69067 0.512107C3.74261 0.394616 3.70542 0.271379 3.71312 0.151333C3.72017 0.0453362 3.76377 0 3.87277 0C4.75824 0.00383123 5.64435 0.00446976 6.52982 0.0051083C6.60676 0.0051083 6.67793 0.0191561 6.68371 0.105997C6.69012 0.211995 6.76065 0.216464 6.83567 0.227958C7.28385 0.297559 7.73588 0.346726 8.17766 0.445699C8.49568 0.516577 8.80986 0.508276 9.1266 0.508276C13.2834 0.510192 17.4408 0.509553 21.5976 0.509553C21.6668 0.509553 21.7361 0.514023 21.8053 0.516577Z" fill="#E5E6E7"/>
<path d="M22.1964 0.597657C22.1015 0.566369 21.9893 0.595103 21.9073 0.517201C22.0118 0.514647 22.1118 0.528695 22.1964 0.597657Z" fill="#E5E6E7"/>
<path d="M1.12334 6.26149C1.12911 6.41346 1.13424 6.5648 1.10987 6.71613C1.08807 6.56352 1.08615 6.41218 1.12334 6.26149Z" fill="#7C4028"/>
<path d="M0.804429 1.98135C0.784414 2 0.764399 2 0.744385 1.98135C0.764399 1.98135 0.784414 1.98135 0.804429 1.98135Z" fill="#CFD1D3"/>
<path d="M1.60525 1.9801C1.58459 1.99811 1.56393 1.99811 1.54391 1.9801C1.56458 1.9801 1.58524 1.9801 1.60525 1.9801Z" fill="#CFD1D3"/>
<path d="M1.37826 1.98033C1.36941 1.98033 1.36115 1.98033 1.35229 1.98033C1.36115 1.97386 1.36941 1.97386 1.37826 1.98033Z" fill="#CFD1D3"/>
<path d="M22.639 1.97966C22.6296 1.97966 22.6207 1.97966 22.6113 1.97966C22.6207 1.9732 22.6296 1.97261 22.639 1.97966Z" fill="#CFD1D3"/>
<path d="M23.1056 6.72062C23.08 6.59802 23.0864 6.47479 23.0947 6.35155C23.13 6.47351 23.1306 6.59675 23.1056 6.72062Z" fill="#7C4028"/>
<path d="M15.9148 15.8908C15.92 15.8908 15.9257 15.8908 15.9309 15.8908H15.9302C15.9322 15.8908 15.9334 15.8921 15.9347 15.894C15.9437 15.9061 15.9514 15.9189 15.961 15.9304C16.0008 15.9802 16.0117 16.0351 15.9758 16.0888C15.9341 16.1507 15.8892 16.2107 15.8469 16.2727C15.7975 16.3455 15.7366 16.4112 15.6898 16.4853C15.6148 16.606 15.5224 16.7133 15.4455 16.8327C15.3731 16.9444 15.2935 17.051 15.2166 17.1596C15.1749 17.219 15.1288 17.2752 15.0858 17.3333C15.0384 17.3984 14.9922 17.4648 14.9422 17.5293C14.8851 17.6034 14.8396 17.687 14.78 17.7605C14.7267 17.8269 14.6876 17.9022 14.6761 17.9852C14.6652 18.0638 14.6652 18.1449 14.6645 18.2247C14.6613 18.648 14.6697 19.0714 14.6543 19.4941C14.6466 19.7144 14.6645 19.9353 14.644 20.1562C14.6363 20.2393 14.5446 20.2993 14.4626 20.2757C14.3625 20.2469 14.2657 20.2092 14.1644 20.1812C13.9778 20.1294 13.7951 20.0637 13.6104 20.0036C13.5361 19.9794 13.4617 19.9513 13.3873 19.9315C13.2969 19.9072 13.2084 19.8785 13.1187 19.851C13.0424 19.8274 12.9667 19.7987 12.8898 19.7789C12.7731 19.7482 12.6615 19.7048 12.5461 19.6722C12.482 19.6544 12.4172 19.6409 12.3499 19.6339C12.2146 19.6199 12.1005 19.6888 11.9774 19.722C11.8927 19.7444 11.8074 19.7687 11.7247 19.8006C11.6356 19.8351 11.5394 19.8542 11.4484 19.8855C11.3554 19.9174 11.2599 19.9411 11.1669 19.9717C11.004 20.026 10.8393 20.0745 10.6758 20.1262C10.518 20.176 10.3584 20.2207 10.2019 20.2744C10.1102 20.3057 10.0269 20.2482 10.0237 20.1518C10.0198 20.0234 10.0237 19.8944 10.0166 19.7661C10.007 19.5809 10.0102 19.3951 10.0064 19.2099C9.99996 18.8939 10.0044 18.5771 10.0032 18.2611C10.0032 18.1947 9.98649 18.1276 9.99547 18.0612C10.0064 17.9839 9.98328 17.9124 9.9461 17.8524C9.86595 17.7241 9.77875 17.6002 9.68642 17.4801C9.62038 17.3946 9.55882 17.3052 9.49599 17.2177C9.43187 17.1289 9.36711 17.0408 9.30684 16.9495C9.25426 16.8691 9.19912 16.7892 9.13821 16.7152C9.0882 16.6545 9.05421 16.5836 9.00356 16.523C8.94265 16.4508 8.892 16.3697 8.83685 16.2925C8.79646 16.2356 8.75927 16.1762 8.71503 16.1226C8.63296 16.0217 8.67592 15.9247 8.76825 15.8959C8.87148 15.8634 8.9715 15.8212 9.07666 15.7931C9.25426 15.7452 9.42225 15.6686 9.59986 15.6188C9.68129 15.5958 9.75823 15.5588 9.83902 15.5332C9.9602 15.4949 10.0807 15.4553 10.2013 15.4157C10.3398 15.3704 10.4789 15.3276 10.6155 15.2778C10.7085 15.244 10.8078 15.2223 10.8893 15.1597C10.9322 15.1265 10.9624 15.0831 10.9957 15.0409C11.0887 14.9234 11.1752 14.8015 11.2644 14.6814C11.3471 14.5703 11.4272 14.4573 11.5125 14.3487C11.6125 14.2217 11.7055 14.0895 11.8042 13.9612C11.8761 13.8679 11.9434 13.7696 12.0165 13.677C12.0857 13.5882 12.146 13.4925 12.2197 13.4063C12.2896 13.3239 12.3819 13.3162 12.4473 13.4044C12.5102 13.4886 12.5781 13.5691 12.6339 13.6572C12.6923 13.7492 12.7731 13.8239 12.8301 13.9171C12.8545 13.9573 12.8833 13.9976 12.925 14.0237L12.9276 14.0263C12.9282 14.0416 12.9334 14.0531 12.943 14.0665C13.0154 14.1674 13.0924 14.2657 13.1635 14.3679C13.1956 14.4139 13.2212 14.4701 13.2783 14.4963L13.2815 14.5001C13.2815 14.5001 13.2854 14.5046 13.2873 14.5058L13.2905 14.509C13.2918 14.5307 13.295 14.5499 13.3104 14.569C13.4264 14.7134 13.5418 14.8577 13.6425 15.0128C13.6528 15.0282 13.6637 15.0384 13.6823 15.0377C13.6835 15.0409 13.6848 15.0441 13.6855 15.0473C13.6861 15.0709 13.7002 15.0869 13.715 15.1029C13.7637 15.1565 13.8169 15.1993 13.8887 15.2223C13.9817 15.2523 14.0734 15.2861 14.1689 15.3078C14.1785 15.3097 14.1888 15.311 14.1984 15.3129C14.2016 15.3263 14.2125 15.3315 14.2234 15.3353C14.3036 15.3627 14.3843 15.3908 14.4645 15.4177C14.5421 15.4432 14.6216 15.4643 14.6979 15.493C14.7729 15.5217 14.8479 15.5537 14.9249 15.5741C15.0723 15.6131 15.2115 15.6756 15.3583 15.7159C15.4449 15.7395 15.5257 15.7835 15.6173 15.7912C15.6218 15.7912 15.6263 15.7899 15.6308 15.7893C15.6308 15.7912 15.6302 15.7925 15.6295 15.7944C15.6327 15.8046 15.6411 15.8104 15.65 15.8142C15.7295 15.848 15.818 15.8544 15.8937 15.8978C15.8975 15.8998 15.9052 15.894 15.9116 15.8921L15.9148 15.8908ZM10.2077 19.7195C10.2077 19.7878 10.209 19.8568 10.2077 19.9251C10.2064 19.964 10.2257 19.9736 10.2577 19.9647C10.2943 19.9538 10.3289 19.9347 10.3661 19.927C10.543 19.8874 10.711 19.8197 10.8848 19.7693C11.1272 19.6984 11.3663 19.618 11.6068 19.542C11.7837 19.4858 11.9607 19.429 12.1389 19.376C12.2576 19.3408 12.3781 19.3325 12.5006 19.3664C12.5846 19.3894 12.6647 19.4226 12.7481 19.4475C12.977 19.5164 13.2059 19.5873 13.4341 19.6576C13.6002 19.7086 13.7663 19.761 13.9323 19.8127C14.09 19.8619 14.2484 19.9104 14.4061 19.9602C14.4472 19.973 14.4639 19.9653 14.4645 19.9187C14.4677 19.708 14.4658 19.4979 14.4709 19.2872C14.4805 18.8677 14.4722 18.4475 14.4837 18.028C14.4844 18.0012 14.4818 17.9744 14.4837 17.9475C14.4927 17.8613 14.4978 17.7751 14.5427 17.6966C14.5927 17.6078 14.6524 17.5261 14.7114 17.4431C14.8082 17.3058 14.9069 17.1692 15.005 17.0319C15.0826 16.9233 15.1602 16.8154 15.2371 16.7069C15.2865 16.6379 15.332 16.5664 15.3833 16.4987C15.5096 16.332 15.6276 16.1596 15.7462 15.9879C15.7712 15.9515 15.7571 15.9387 15.7212 15.9291C15.6731 15.9157 15.6257 15.8991 15.5782 15.8832C15.4987 15.8563 15.4199 15.8276 15.3404 15.8014C15.2435 15.7695 15.1461 15.7414 15.0493 15.7088C14.8845 15.6533 14.721 15.5939 14.5562 15.539C14.444 15.5013 14.3266 15.4758 14.217 15.4317C14.0894 15.3806 13.958 15.3423 13.8284 15.2983C13.7252 15.2631 13.6406 15.2006 13.5713 15.122C13.5021 15.0435 13.4469 14.9528 13.3854 14.8679C13.2661 14.7051 13.1417 14.5461 13.0238 14.3826C12.8596 14.1559 12.6897 13.9331 12.5217 13.7089C12.473 13.6432 12.4249 13.5768 12.373 13.5135C12.3351 13.4669 12.3255 13.4701 12.2915 13.5174C12.2761 13.5391 12.255 13.557 12.2415 13.5799C12.1736 13.6904 12.087 13.7881 12.0126 13.8941C11.9447 13.9912 11.8703 14.0838 11.7991 14.1789C11.6997 14.3124 11.6042 14.4496 11.5003 14.5799C11.3836 14.7261 11.2778 14.88 11.1656 15.0294C11.0739 15.152 10.972 15.2542 10.8252 15.3034C10.6905 15.3487 10.5527 15.3838 10.4193 15.4343C10.1897 15.5205 9.95507 15.5939 9.72361 15.6744C9.51394 15.7465 9.30235 15.8148 9.0914 15.8838C9.04203 15.8998 8.99202 15.9144 8.94393 15.9342C8.92598 15.9419 8.89007 15.9528 8.91572 15.9834C8.93688 16.0077 8.95034 16.0364 8.96894 16.0613C9.07601 16.2063 9.18117 16.3531 9.28632 16.5C9.38635 16.6398 9.48573 16.7797 9.58575 16.9195C9.66911 17.0364 9.75951 17.1487 9.83645 17.2701C9.91019 17.3856 9.99547 17.4929 10.0718 17.6059C10.1391 17.7062 10.1821 17.8109 10.1859 17.9303C10.1936 18.1723 10.1859 18.415 10.1942 18.6576C10.2051 19.012 10.1917 19.3664 10.2071 19.7208L10.2077 19.7195Z" fill="#EFB124"/>
<path d="M12.9262 14.021C12.8839 13.9948 12.8557 13.9539 12.8313 13.9144C12.7749 13.8211 12.6941 13.7471 12.6351 13.6545C12.5793 13.5663 12.5107 13.4859 12.4485 13.4016C12.3831 13.3135 12.2908 13.3211 12.2209 13.4035C12.1471 13.4897 12.0869 13.5855 12.0176 13.6743C11.9452 13.7668 11.8779 13.8652 11.8054 13.9584C11.7067 14.0868 11.6143 14.2189 11.5137 14.346C11.4284 14.4546 11.3482 14.5676 11.2655 14.6787C11.1764 14.7987 11.0898 14.9207 10.9969 15.0382C10.9635 15.0803 10.934 15.1237 10.8904 15.1569C10.809 15.2195 10.7103 15.2412 10.6166 15.2751C10.4801 15.3249 10.3409 15.3677 10.2024 15.413C10.0819 15.4526 9.96136 15.4922 9.84018 15.5305C9.76003 15.556 9.68309 15.5931 9.60102 15.6161C9.42341 15.6659 9.25542 15.7425 9.07782 15.7904C8.97266 15.8185 8.87264 15.8613 8.76941 15.8932C8.67708 15.9219 8.63412 16.0196 8.71619 16.1199C8.75979 16.1741 8.79762 16.2329 8.83801 16.2897C8.89316 16.367 8.94381 16.4474 9.00472 16.5202C9.05537 16.5809 9.08936 16.6518 9.13937 16.7124C9.20028 16.7865 9.25478 16.8663 9.308 16.9468C9.36827 17.0381 9.43303 17.1268 9.49715 17.215C9.55998 17.3024 9.62154 17.3918 9.68758 17.4774C9.77991 17.5974 9.86711 17.7213 9.94726 17.8497C9.98509 17.9097 10.0075 17.9812 9.99663 18.0585C9.98765 18.1249 10.0037 18.1919 10.0043 18.2583C10.0056 18.5744 10.0005 18.8911 10.0075 19.2072C10.0114 19.393 10.0075 19.5788 10.0178 19.7634C10.0242 19.8923 10.0216 20.0207 10.0248 20.149C10.0274 20.2455 10.1114 20.3029 10.2031 20.2716C10.3595 20.218 10.5192 20.1733 10.6769 20.1235C10.8404 20.0718 11.0052 20.0232 11.1681 19.969C11.261 19.9383 11.3566 19.9147 11.4495 19.8828C11.5412 19.8515 11.6374 19.8323 11.7259 19.7978C11.8086 19.7659 11.8945 19.7416 11.9785 19.7193C12.101 19.6867 12.2158 19.6171 12.351 19.6312C12.4177 19.6382 12.4825 19.6516 12.5472 19.6695C12.6627 19.7021 12.7742 19.7455 12.8909 19.7761C12.9679 19.7966 13.0435 19.8247 13.1198 19.8483C13.2089 19.8757 13.2974 19.9045 13.3885 19.9287C13.4629 19.9485 13.5372 19.9773 13.6116 20.0009C13.7963 20.0603 13.979 20.1267 14.1656 20.1784C14.2663 20.2065 14.3637 20.2442 14.4637 20.2729C14.5452 20.2965 14.6375 20.2365 14.6452 20.1535C14.6657 19.9332 14.6478 19.7123 14.6554 19.4913C14.6708 19.068 14.6625 18.6453 14.6657 18.2219C14.6657 18.1421 14.6657 18.0617 14.6772 17.9825C14.6888 17.8988 14.7279 17.8235 14.7811 17.7577C14.8407 17.6843 14.8863 17.6 14.9433 17.5266C14.9927 17.4627 15.0389 17.3957 15.087 17.3305C15.1299 17.2724 15.1754 17.2162 15.2178 17.1568C15.2947 17.0483 15.3742 16.941 15.4467 16.8299C15.5236 16.7111 15.6159 16.6032 15.691 16.4825C15.7371 16.4078 15.798 16.3427 15.848 16.2699C15.8904 16.208 15.9352 16.148 15.9769 16.086C16.0122 16.033 16.0013 15.9775 15.9622 15.9277C15.9526 15.9162 15.9449 15.9034 15.9359 15.8913C15.9949 15.9021 16.0058 15.9526 16.0224 15.9973C16.0224 16.0509 16.0032 16.0981 15.9724 16.1409C15.8993 16.2405 15.8269 16.3408 15.7551 16.441C15.7025 16.5138 15.6512 16.5879 15.5993 16.6607C15.5095 16.7865 15.4191 16.9129 15.3287 17.0387C15.2351 17.1683 15.1479 17.3031 15.053 17.4314C14.9805 17.5285 14.9113 17.6274 14.8382 17.7239C14.7997 17.7749 14.7535 17.8267 14.733 17.8861C14.7144 17.9391 14.6933 17.9946 14.6939 18.0546C14.6952 18.2487 14.6965 18.4429 14.6914 18.637C14.6817 19.0265 14.6772 19.4166 14.6753 19.8061C14.6753 19.8662 14.6728 19.9262 14.6805 19.9862C14.6907 20.0635 14.6721 20.1395 14.6593 20.2148C14.651 20.2665 14.574 20.3074 14.5099 20.2972C14.4124 20.2818 14.3208 20.2442 14.2265 20.218C14.1444 20.1956 14.0649 20.165 13.9822 20.1426C13.8956 20.119 13.8097 20.089 13.7238 20.0609C13.5507 20.0047 13.3782 19.9447 13.2025 19.8968C13.0365 19.8515 12.8755 19.7915 12.7107 19.7429C12.6101 19.7129 12.5088 19.6848 12.4081 19.6554C12.3581 19.6408 12.3036 19.6369 12.2594 19.6554C12.1709 19.6918 12.0753 19.7014 11.9869 19.741C11.9054 19.7774 11.8144 19.794 11.7285 19.8202C11.5643 19.8706 11.4008 19.9211 11.2367 19.9722C10.9706 20.0552 10.7039 20.1363 10.4384 20.2231C10.3557 20.2506 10.2717 20.271 10.1883 20.2946C10.1601 20.3023 10.1351 20.2914 10.1088 20.2933C10.0345 20.2729 10.003 20.2244 10.0024 20.1292C10.0024 20.0641 10.0024 19.999 10.0018 19.9332C9.99791 19.5016 9.99791 19.0699 9.98893 18.6383C9.98509 18.4524 9.98573 18.2666 9.98316 18.0814C9.98188 17.9601 9.93956 17.8548 9.86454 17.7603C9.78889 17.6651 9.72348 17.563 9.65295 17.464C9.53626 17.2992 9.41251 17.139 9.29774 16.9729C9.21246 16.8491 9.12398 16.7277 9.03742 16.6051C8.92265 16.4423 8.80531 16.2808 8.69054 16.1179C8.62771 16.0285 8.64758 15.913 8.77133 15.8689C8.93547 15.8108 9.1009 15.7565 9.2644 15.6984C9.34711 15.6691 9.43367 15.6473 9.51702 15.6192C9.70168 15.5567 9.8857 15.4922 10.071 15.4296C10.2217 15.3792 10.3736 15.3325 10.5237 15.2802C10.6365 15.2406 10.7558 15.2151 10.859 15.1493C10.927 15.1059 10.9725 15.042 11.0161 14.9782C11.0629 14.9092 11.1161 14.8453 11.1655 14.7783C11.2412 14.6748 11.3207 14.5746 11.3925 14.468C11.4303 14.4111 11.4739 14.3581 11.5156 14.3039C11.565 14.2387 11.615 14.1742 11.6643 14.1091C11.7278 14.0255 11.7913 13.9424 11.8541 13.8582C11.9593 13.7164 12.0632 13.574 12.1689 13.4323C12.1907 13.4029 12.2138 13.3741 12.2401 13.3486C12.2933 13.2956 12.4036 13.3058 12.4517 13.3639C12.4876 13.408 12.5139 13.4591 12.5569 13.4974C12.5601 13.5229 12.5825 13.5357 12.5966 13.5542C12.6902 13.6819 12.7851 13.8084 12.8781 13.9361C12.8973 13.9622 12.93 13.9808 12.93 14.0191L12.9262 14.021Z" fill="#F4C445"/>
<path d="M14.2008 15.3102C14.2444 15.3044 14.2791 15.3338 14.3195 15.3415C14.3611 15.3498 14.4015 15.3664 14.4426 15.3791C14.5452 15.4149 14.6477 15.45 14.7503 15.4864C14.7933 15.5017 14.8369 15.5113 14.8818 15.519C14.8869 15.5222 14.8914 15.5254 14.8965 15.5286C14.9754 15.5694 15.0619 15.5905 15.1453 15.6186C15.3037 15.6722 15.4627 15.7233 15.6204 15.7789C15.6204 15.7821 15.6204 15.7852 15.6204 15.7884C15.5287 15.7808 15.4479 15.7367 15.3614 15.7131C15.2145 15.6729 15.0754 15.6103 14.9279 15.5713C14.8516 15.5509 14.7766 15.519 14.701 15.4902C14.6247 15.4615 14.5452 15.4404 14.4676 15.4149C14.3868 15.3881 14.3066 15.36 14.2265 15.3325C14.2156 15.3287 14.2047 15.3229 14.2015 15.3102H14.2008Z" fill="#F4C445"/>
<path d="M15.9148 15.8906C15.909 15.8925 15.9007 15.8989 15.8968 15.8964C15.8205 15.8529 15.732 15.8466 15.6532 15.8127C15.6436 15.8089 15.6359 15.8031 15.6327 15.7929C15.709 15.7904 15.7718 15.8338 15.8404 15.8561C15.8654 15.8644 15.8988 15.8606 15.9148 15.8906Z" fill="#F4C445"/>
<path d="M15.6198 15.79C15.6198 15.7865 15.6205 15.783 15.6198 15.7795C15.6247 15.7823 15.6289 15.7851 15.6338 15.7879C15.6289 15.7879 15.624 15.7893 15.6191 15.79H15.6198Z" fill="#BBCECF"/>
<path d="M15.9295 15.8924H15.9317V15.888L15.9295 15.8924Z" fill="#F4C445"/>
<path d="M10.2076 19.7193C10.1922 19.3649 10.2056 19.0099 10.1947 18.6561C10.187 18.4135 10.1947 18.1715 10.1864 17.9288C10.1826 17.81 10.1402 17.7047 10.0723 17.6044C9.99597 17.4908 9.9107 17.3841 9.83696 17.2686C9.76002 17.1479 9.67025 17.0349 9.58626 16.918C9.48623 16.7782 9.38685 16.6383 9.28683 16.4985C9.18167 16.3516 9.07652 16.2048 8.96944 16.0598C8.95085 16.0343 8.93738 16.0062 8.91622 15.9819C8.89058 15.9519 8.92648 15.9404 8.94444 15.9327C8.99253 15.9136 9.04254 15.8983 9.09191 15.8823C9.30286 15.814 9.51445 15.7457 9.72411 15.6729C9.95622 15.593 10.1903 15.5196 10.4198 15.4328C10.5525 15.383 10.691 15.3472 10.8257 15.3019C10.9725 15.2527 11.0744 15.1505 11.1661 15.0279C11.2777 14.8785 11.3835 14.724 11.5008 14.5784C11.6047 14.4481 11.7002 14.3109 11.7996 14.1774C11.8708 14.0823 11.9452 13.9897 12.0131 13.8926C12.0875 13.7866 12.1741 13.6889 12.242 13.5785C12.2561 13.5561 12.2767 13.5376 12.292 13.5159C12.326 13.4686 12.3356 13.4654 12.3735 13.512C12.4254 13.5753 12.4729 13.6417 12.5222 13.7074C12.6902 13.9316 12.8601 14.1544 13.0243 14.3811C13.1422 14.5446 13.2666 14.7036 13.3859 14.8664C13.4481 14.9513 13.5032 15.042 13.5718 15.1205C13.6411 15.1991 13.7257 15.2616 13.829 15.2968C13.9585 15.3408 14.0899 15.3791 14.2175 15.4302C14.3271 15.4743 14.4438 15.4998 14.5567 15.5375C14.7215 15.5924 14.885 15.6518 15.0498 15.7073C15.1459 15.7399 15.244 15.768 15.3409 15.7999C15.4204 15.8261 15.4992 15.8548 15.5787 15.8817C15.6262 15.8976 15.6736 15.9136 15.7217 15.9276C15.757 15.9379 15.7711 15.9506 15.7467 15.9864C15.6281 16.1581 15.5101 16.3306 15.3838 16.4972C15.3325 16.5649 15.287 16.6364 15.2376 16.7054C15.1607 16.8139 15.0831 16.9218 15.0055 17.0304C14.9074 17.1677 14.8093 17.3037 14.7119 17.4416C14.6535 17.5246 14.5939 17.6064 14.5432 17.6951C14.4983 17.7736 14.4932 17.8599 14.4842 17.9461C14.4817 17.9722 14.4842 17.9997 14.4842 18.0265C14.4727 18.446 14.481 18.8662 14.4714 19.2857C14.4663 19.4964 14.4682 19.7071 14.465 19.9172C14.4644 19.9638 14.4477 19.9721 14.4067 19.9587C14.2489 19.9089 14.0912 19.8604 13.9328 19.8112C13.7668 19.7595 13.6007 19.7071 13.4346 19.6561C13.2057 19.5852 12.9775 19.5143 12.7486 19.446C12.6652 19.4211 12.5851 19.3879 12.5011 19.3649C12.3786 19.3317 12.2581 19.34 12.1394 19.3745C11.9612 19.4268 11.7842 19.4843 11.6073 19.5405C11.3668 19.6165 11.1277 19.6969 10.8853 19.7678C10.7115 19.8182 10.5435 19.8859 10.3666 19.9255C10.3294 19.9338 10.2948 19.953 10.2582 19.9632C10.2268 19.9721 10.2069 19.9632 10.2082 19.9236C10.2101 19.8553 10.2082 19.7863 10.2082 19.718L10.2076 19.7193ZM9.33492 16.0649C9.3471 16.0668 9.35479 16.0694 9.36313 16.0688C9.5324 16.0649 9.70167 16.0713 9.87158 16.0624C10.0671 16.0515 10.2627 16.0387 10.4576 16.0209C10.6622 16.0023 10.8654 15.9711 11.0687 15.9398C11.2027 15.9193 11.3367 15.9002 11.4694 15.8708C11.5072 15.8625 11.5303 15.8485 11.5451 15.8153C11.5848 15.7271 11.631 15.6422 11.6752 15.5566C11.7708 15.3708 11.858 15.1812 11.9458 14.9915C11.9952 14.8843 12.0381 14.7744 12.0817 14.6646C12.1215 14.5637 12.1638 14.4641 12.1984 14.3619C12.2318 14.2623 12.2645 14.1634 12.2991 14.0637C12.3119 14.0267 12.3209 13.989 12.3228 13.9475C12.2914 13.952 12.276 13.9737 12.2613 13.9929C12.1503 14.1385 12.0336 14.2802 11.9272 14.4303C11.8304 14.5676 11.7355 14.7068 11.6457 14.8485C11.522 15.0445 11.4104 15.2476 11.2912 15.4462C11.2777 15.4685 11.2738 15.5024 11.2347 15.5088C11.1321 15.5247 11.0321 15.5554 10.9308 15.5745C10.682 15.6205 10.4384 15.6875 10.1941 15.7527C10.0813 15.7827 9.97033 15.8197 9.8594 15.8561C9.70937 15.9053 9.56125 15.957 9.41699 16.0202C9.3907 16.0317 9.35479 16.0253 9.3362 16.0649H9.33492ZM10.5262 19.5609C10.5384 19.5162 10.5538 19.4773 10.5589 19.4377C10.5705 19.3451 10.5897 19.2538 10.6057 19.1618C10.6192 19.0865 10.6352 19.0118 10.6493 18.9364C10.6788 18.7762 10.7013 18.6146 10.732 18.4537C10.7776 18.2168 10.8186 17.9786 10.8616 17.7417C10.8699 17.6938 10.8372 17.6887 10.8039 17.6874C10.7051 17.6843 10.607 17.6785 10.5083 17.6677C10.4769 17.6638 10.4615 17.6766 10.4628 17.7104C10.4724 17.932 10.4813 18.1536 10.4897 18.3752C10.4948 18.515 10.4955 18.6555 10.4961 18.7959C10.498 19.0373 10.5217 19.2787 10.5102 19.5207C10.5102 19.5322 10.5083 19.5443 10.5256 19.5616L10.5262 19.5609Z" fill="#F4C445"/>
<path d="M13.2917 14.5069C13.3571 14.5625 13.3968 14.6378 13.4475 14.7042C13.5199 14.7994 13.5911 14.8958 13.6629 14.9916C13.6732 15.005 13.6847 15.0171 13.6834 15.0356C13.6642 15.0363 13.6533 15.0267 13.6437 15.0107C13.543 14.8556 13.427 14.7106 13.3116 14.5669C13.2962 14.5478 13.293 14.5286 13.2917 14.5069Z" fill="#F4C445"/>
<path d="M12.9294 14.0241C12.9769 14.0503 12.9961 14.102 13.0282 14.141C13.1109 14.2425 13.1865 14.3498 13.2654 14.4539C13.275 14.4666 13.284 14.4775 13.2795 14.4941C13.2231 14.4679 13.1968 14.4111 13.1647 14.3658C13.0936 14.2636 13.0166 14.1659 12.9442 14.0644C12.9345 14.051 12.9294 14.0388 12.9288 14.0241H12.9294Z" fill="#F4C445"/>
<path d="M13.6872 15.0452C13.7225 15.0528 13.7334 15.088 13.7552 15.109C13.8199 15.1729 13.9007 15.2016 13.9835 15.2297C14.0405 15.2489 14.0976 15.2693 14.1546 15.2891C14.163 15.2923 14.1688 15.2974 14.1713 15.3057C14.0758 15.284 13.9841 15.2502 13.8911 15.2201C13.8193 15.1972 13.7661 15.1544 13.7174 15.1007C13.7026 15.0848 13.6885 15.0682 13.6879 15.0452H13.6872Z" fill="#F4C445"/>
<path d="M13.2827 14.498C13.2827 14.498 13.2895 14.5047 13.2928 14.5081C13.2895 14.5047 13.2861 14.5014 13.2827 14.498Z" fill="#F4C445"/>
<path d="M9.33487 16.0649C9.35346 16.0254 9.38937 16.0317 9.41566 16.0202C9.55992 15.957 9.70868 15.9053 9.85807 15.8561C9.969 15.8197 10.0806 15.7827 10.1928 15.7527C10.4371 15.6876 10.6807 15.6212 10.9295 15.5746C11.0314 15.5554 11.1308 15.5247 11.2334 15.5088C11.2725 15.5024 11.2764 15.4686 11.2898 15.4462C11.4091 15.2476 11.5207 15.0439 11.6444 14.8485C11.7342 14.7068 11.8284 14.5676 11.9259 14.4303C12.0317 14.2802 12.1484 14.1391 12.2599 13.9929C12.2747 13.9731 12.2894 13.952 12.3215 13.9476C12.3196 13.9891 12.3106 14.0267 12.2978 14.0638C12.2638 14.1627 12.2304 14.2624 12.1971 14.362C12.1625 14.4641 12.1202 14.5644 12.0804 14.6646C12.0374 14.7745 11.9945 14.8843 11.9445 14.9916C11.8573 15.1812 11.7694 15.3709 11.6739 15.5567C11.6297 15.6422 11.5835 15.7272 11.5437 15.8153C11.529 15.8485 11.5053 15.8625 11.4681 15.8708C11.3354 15.9002 11.2013 15.9194 11.0673 15.9398C10.8641 15.9711 10.6615 16.0024 10.4563 16.0209C10.2614 16.0388 10.0658 16.0515 9.87026 16.0624C9.70034 16.0713 9.53107 16.0656 9.3618 16.0688C9.3541 16.0688 9.34577 16.0662 9.33359 16.0649H9.33487Z" fill="#F7D480"/>
<path d="M10.5263 19.5609C10.509 19.5437 10.5103 19.5316 10.5109 19.5201C10.5224 19.2781 10.4987 19.0373 10.4968 18.7953C10.4955 18.6555 10.4955 18.515 10.4904 18.3745C10.482 18.153 10.4731 17.9314 10.4635 17.7098C10.4622 17.676 10.4776 17.6638 10.509 17.667C10.6071 17.6785 10.7058 17.6836 10.8046 17.6868C10.8379 17.6881 10.8706 17.6932 10.8623 17.7411C10.8193 17.9786 10.7783 18.2162 10.7327 18.4531C10.702 18.6134 10.6795 18.7749 10.65 18.9358C10.6359 19.0112 10.6199 19.0859 10.6064 19.1612C10.5898 19.2532 10.5712 19.3438 10.5596 19.4371C10.5545 19.4773 10.5391 19.5162 10.5269 19.5603L10.5263 19.5609Z" fill="#F7D480"/>
</svg>
