<svg width="34" height="25" viewBox="0 0 34 25" fill="none" xmlns="http://www.w3.org/2000/svg">
<path fill-rule="evenodd" clip-rule="evenodd" d="M4.94697 24.8252H14.8443C14.9856 24.8252 15.121 24.7679 15.2204 24.666L16.6257 23.2342L18.0314 24.666C18.1313 24.7676 18.2668 24.8252 18.4078 24.8252H27.017C27.1192 24.8252 27.2189 24.7954 27.3045 24.7392L28.799 23.7619L30.2936 24.7392C30.3795 24.7951 30.479 24.8252 30.5811 24.8252H32.5343C33.3426 24.8252 34.0002 24.155 34.0002 23.3316V19.6722C34.0002 19.3724 33.7621 19.1298 33.4678 19.1298C31.679 19.1298 30.2236 17.6469 30.2236 15.8246C30.2236 14.0023 31.6791 12.5191 33.4678 12.5191C33.7619 12.5191 34.0002 12.2766 34.0002 11.9768V8.3173C34.0002 7.49371 33.3426 6.82399 32.5343 6.82399H28.0366C27.9313 6.82399 27.8281 6.85599 27.7404 6.91581L26.1043 8.03205L24.4683 6.91581C24.3806 6.85613 24.2775 6.82399 24.1721 6.82399H12.0329C11.8916 6.82399 11.7559 6.88115 11.6565 6.98289L10.1006 8.5683L8.54438 6.98289C8.44439 6.88115 8.309 6.82399 8.16799 6.82399H4.94766C4.13946 6.82399 3.482 7.49413 3.482 8.31744V23.3314C3.48118 24.1549 4.13863 24.825 4.94684 24.825L4.94697 24.8252Z" fill="#5086EF"/>
<path fill-rule="evenodd" clip-rule="evenodd" d="M8.16771 6.82427H4.94738C4.13918 6.82427 3.48199 7.49441 3.48199 8.31772V16.3556L0.305972 15.5648C0.202821 15.5393 0.115444 15.4734 0.059067 15.3795C0.00310184 15.2856 -0.0139101 15.176 0.0114662 15.0712L3.50888 0.485993C3.55964 0.274401 3.78267 0.133106 3.99336 0.186074L6.90781 0.911415L8.21215 3.09932C8.36455 3.35549 8.69252 3.43641 8.94313 3.28156L11.0908 1.95275L22.5119 4.79583L23.9728 6.42219C24.1183 6.58389 24.3451 6.64049 24.5484 6.5653L26.5803 5.80865L30.66 6.82427H28.0367C27.9314 6.82427 27.8282 6.85627 27.7406 6.91581L26.1044 8.03191L24.4684 6.91581C24.3807 6.85641 24.2776 6.82427 24.1722 6.82427H12.033C11.8917 6.82427 11.7561 6.88143 11.6566 6.98345L10.1007 8.56886L8.54451 6.98345C8.44397 6.88143 8.30831 6.82427 8.16757 6.82427H8.16771Z" fill="#3B5BAF"/>
<path fill-rule="evenodd" clip-rule="evenodd" d="M23.6239 24.8252V6.82427H24.1723C24.2776 6.82427 24.3808 6.85627 24.4684 6.91581L26.1044 8.03191L27.7406 6.91581C27.8282 6.85641 27.9314 6.82427 28.0367 6.82427H32.5343C33.3426 6.82427 34.0002 7.49399 34.0002 8.31758V11.9771C34.0002 12.2768 33.7621 12.5194 33.4678 12.5194C31.6791 12.5194 30.2236 14.0023 30.2236 15.8249C30.2236 17.6475 31.679 19.13 33.4678 19.13C33.7619 19.13 34.0002 19.3725 34.0002 19.6724V23.3319C34.0002 24.1553 33.3426 24.8254 32.5343 24.8254H30.581C30.4789 24.8254 30.3793 24.7954 30.2934 24.7395L28.7988 23.7622L27.3044 24.7395C27.2188 24.7957 27.1191 24.8254 27.0169 24.8254H23.6237L23.6239 24.8252Z" fill="#4072D2"/>
<path fill-rule="evenodd" clip-rule="evenodd" d="M15.9662 19.938C16.0537 19.938 16.1423 19.9152 16.2237 19.8675C16.4704 19.7225 16.5552 19.4006 16.4126 19.1493L12.8285 12.8241C12.6861 12.5726 12.3713 12.4857 12.1235 12.6315C11.8766 12.7764 11.792 13.0983 11.9344 13.3498L15.5188 19.675C15.6144 19.8438 15.7879 19.9378 15.9662 19.9378V19.938Z" fill="#F5F5F5"/>
<path fill-rule="evenodd" clip-rule="evenodd" d="M17.8439 16.9911C18.824 16.9911 19.6856 16.3166 19.9392 15.3516C20.2491 14.1741 19.5607 12.9592 18.4048 12.6431C18.2205 12.5926 18.0312 12.5675 17.8421 12.5675C16.8622 12.5675 16.0004 13.2418 15.7466 14.2068C15.5964 14.7773 15.6736 15.3735 15.9636 15.8849C16.2533 16.3964 16.7213 16.7623 17.2811 16.9153C17.4655 16.9658 17.6549 16.9911 17.8439 16.9911ZM17.8421 13.6193C17.9413 13.6193 18.0406 13.6326 18.1376 13.659C18.7438 13.8247 19.1049 14.462 18.9422 15.0796C18.8091 15.5865 18.3575 15.9399 17.8441 15.9399C17.7449 15.9399 17.6454 15.9265 17.5485 15.9C17.2546 15.8196 17.0091 15.628 16.8575 15.3593C16.7054 15.0911 16.6648 14.7786 16.7438 14.4793C16.8769 13.973 17.3286 13.6193 17.8421 13.6193Z" fill="#F5F5F5"/>
<path fill-rule="evenodd" clip-rule="evenodd" d="M10.5055 19.9318C11.4856 19.9318 12.3473 19.2576 12.601 18.2923C12.7512 17.7219 12.6743 17.1259 12.3843 16.6147C12.0943 16.1032 11.6263 15.7373 11.0663 15.5843C10.8819 15.5338 10.6926 15.5082 10.5037 15.5082C9.52365 15.5082 8.66195 16.1827 8.40846 17.148C8.25826 17.7182 8.33521 18.3143 8.62519 18.8258C8.91516 19.3373 9.38305 19.7032 9.94298 19.8562C10.1273 19.9061 10.3164 19.932 10.5055 19.932V19.9318ZM10.5036 16.5599C10.6025 16.5599 10.7019 16.5732 10.7992 16.5999C11.0929 16.68 11.3385 16.8718 11.4904 17.1403C11.6422 17.4088 11.6828 17.721 11.6041 18.0202C11.4709 18.5269 11.0191 18.8803 10.5054 18.8803C10.4065 18.8803 10.307 18.8669 10.2098 18.8403C9.91609 18.76 9.6707 18.5681 9.51885 18.2996C9.367 18.0311 9.3264 17.7192 9.40513 17.4203C9.53805 16.9134 9.98989 16.5599 10.5036 16.5599Z" fill="#F5F5F5"/>
</svg>
