<svg width="24" height="23" viewBox="0 0 24 23" fill="none" xmlns="http://www.w3.org/2000/svg">
<path d="M23.6541 8.47641C23.6715 8.47641 23.689 8.47641 23.7064 8.47674H23.7034C23.7097 8.47773 23.7146 8.48137 23.7176 8.48699C23.7458 8.52701 23.7724 8.56835 23.803 8.60704C23.9315 8.7704 23.9679 8.95262 23.8519 9.12756C23.7166 9.33194 23.57 9.52937 23.433 9.73341C23.2716 9.97317 23.0732 10.1885 22.9223 10.4342C22.6782 10.8307 22.3772 11.1855 22.1268 11.5771C21.8919 11.9448 21.6316 12.296 21.3819 12.6542C21.2459 12.849 21.0963 13.0338 20.9567 13.2263C20.8013 13.4406 20.6511 13.6602 20.4898 13.8708C20.3031 14.1142 20.1546 14.39 19.961 14.6328C19.7872 14.8507 19.661 15.0991 19.6226 15.3735C19.5864 15.6325 19.5878 15.898 19.5858 16.1609C19.5753 17.5542 19.6016 18.9474 19.5523 20.3404C19.5263 21.0662 19.5858 21.7938 19.5191 22.5193C19.4938 22.7935 19.1944 22.9903 18.9283 22.9129C18.602 22.8176 18.2862 22.6933 17.9576 22.602C17.349 22.4324 16.7536 22.2148 16.152 22.0187C15.9091 21.9393 15.6673 21.8464 15.4244 21.7806C15.1297 21.7012 14.8409 21.6069 14.5501 21.5163C14.3003 21.4386 14.0545 21.3444 13.8038 21.2779C13.4246 21.1777 13.0609 21.0332 12.6846 20.9267C12.4753 20.8675 12.2643 20.8235 12.0461 20.8004C11.6055 20.7531 11.2332 20.9816 10.8333 21.0897C10.5586 21.1641 10.2806 21.2425 10.0102 21.3483C9.72035 21.4618 9.40752 21.5246 9.10916 21.6278C8.80685 21.7323 8.49567 21.8103 8.19237 21.9118C7.66169 22.0894 7.12575 22.2495 6.59277 22.4201C6.07917 22.5848 5.55966 22.731 5.04935 22.9079C4.75132 23.0114 4.47825 22.8206 4.46938 22.5041C4.45755 22.0808 4.46774 21.6579 4.44572 21.2339C4.4145 20.6244 4.42502 20.013 4.41253 19.4021C4.39085 18.3611 4.40728 17.3194 4.40267 16.278C4.40169 16.0587 4.3478 15.8388 4.37803 15.6202C4.41286 15.3666 4.33893 15.1315 4.21669 14.933C3.95644 14.5107 3.67122 14.102 3.37088 13.7071C3.15598 13.4247 2.95554 13.1314 2.75017 12.8437C2.54216 12.5523 2.33088 12.261 2.13503 11.9597C1.96285 11.6948 1.78508 11.4316 1.58595 11.1875C1.42264 10.9874 1.31289 10.754 1.1476 10.5549C0.949788 10.3164 0.784175 10.0509 0.60509 9.79657C0.473323 9.60973 0.351414 9.41494 0.208475 9.23703C-0.058345 8.90533 0.0816369 8.58521 0.381974 8.4903C0.719113 8.38381 1.04377 8.24459 1.38649 8.15133C1.96482 7.99359 2.51325 7.74093 3.09092 7.57723C3.35643 7.50183 3.6078 7.37881 3.86936 7.29514C4.26335 7.16882 4.65635 7.03885 5.04902 6.90921C5.49986 6.7604 5.95299 6.61853 6.39824 6.45483C6.70186 6.34305 7.02487 6.27195 7.29005 6.06493C7.43069 5.95514 7.52795 5.81261 7.63639 5.67437C7.93935 5.28811 8.2203 4.88598 8.51078 4.49079C8.77925 4.12503 9.04147 3.75299 9.31913 3.3965C9.64543 2.97783 9.94773 2.54196 10.2688 2.12032C10.5031 1.81243 10.7229 1.48934 10.9592 1.18377C11.1856 0.890766 11.3817 0.576268 11.6213 0.291534C11.8493 0.0206889 12.1493 -0.00378306 12.3629 0.285912C12.567 0.562379 12.7891 0.827271 12.9718 1.11763C13.1627 1.42088 13.4259 1.66527 13.6106 1.97282C13.6901 2.1051 13.7831 2.23805 13.9201 2.32469L13.9293 2.33329C13.9316 2.38322 13.9477 2.42258 13.979 2.46623C14.2149 2.79892 14.4653 3.12135 14.6969 3.45768C14.8008 3.60848 14.8855 3.79499 15.0699 3.88131L15.0804 3.89288C15.086 3.90016 15.0926 3.90644 15.0995 3.91239L15.11 3.9233C15.1139 3.99474 15.1248 4.0579 15.1744 4.1204C15.5519 4.59496 15.9288 5.07051 16.2571 5.58211C16.29 5.63337 16.3255 5.66644 16.3876 5.66346C16.3912 5.67371 16.3951 5.68396 16.3987 5.69454C16.4017 5.77127 16.4474 5.82484 16.4953 5.87808C16.6537 6.05369 16.8285 6.19523 17.0618 6.27129C17.3648 6.36984 17.6632 6.48228 17.9747 6.55272C18.0066 6.55801 18.0388 6.56363 18.0706 6.56892C18.0811 6.61224 18.1156 6.6301 18.1521 6.643C18.414 6.73427 18.6752 6.82687 18.9384 6.9145C19.1915 6.99916 19.4504 7.06795 19.6995 7.16319C19.9443 7.25678 20.1891 7.36393 20.4378 7.43007C20.9189 7.55805 21.372 7.76375 21.8501 7.89603C22.1327 7.97407 22.3959 8.11892 22.6936 8.14505C22.7078 8.14306 22.7222 8.14108 22.7364 8.13876C22.7347 8.14439 22.7337 8.15034 22.7331 8.15596C22.7446 8.18936 22.7699 8.20821 22.8008 8.22177C23.059 8.33289 23.3476 8.35471 23.5953 8.49791C23.6068 8.50452 23.6334 8.48534 23.6528 8.47839L23.6541 8.47641ZM5.06217 21.0801C5.06217 21.306 5.06644 21.5322 5.06052 21.7577C5.05724 21.8851 5.12 21.9175 5.22351 21.887C5.34345 21.852 5.45615 21.7892 5.57708 21.762C6.15343 21.6324 6.7012 21.4095 7.26606 21.2425C8.05469 21.0094 8.83412 20.7441 9.61782 20.4941C10.1952 20.3099 10.7712 20.1211 11.3518 19.9485C11.7386 19.8334 12.1306 19.8059 12.5302 19.9161C12.8042 19.9915 13.0655 20.1006 13.3365 20.1829C14.0828 20.4098 14.8274 20.6429 15.572 20.8754C16.1135 21.0444 16.6544 21.2167 17.1956 21.387C17.7098 21.5491 18.2247 21.7085 18.7383 21.8732C18.8721 21.9161 18.926 21.8897 18.9283 21.7362C18.9394 21.0431 18.9335 20.3499 18.9493 19.6565C18.9805 18.2751 18.9532 16.8924 18.992 15.5108C18.9943 15.4228 18.9848 15.3335 18.994 15.2465C19.0236 14.9635 19.041 14.6794 19.1865 14.4205C19.3502 14.1291 19.5444 13.8592 19.735 13.5867C20.0511 13.1337 20.3721 12.6839 20.6912 12.2332C20.9435 11.8767 21.1969 11.5209 21.4476 11.1637C21.6076 10.9358 21.7568 10.7001 21.9234 10.4775C22.3342 9.92852 22.7186 9.36137 23.105 8.79521C23.1862 8.67615 23.1399 8.63416 23.0245 8.60109C22.8675 8.55611 22.713 8.5032 22.5583 8.45029C22.2997 8.36166 22.043 8.26741 21.7838 8.18142C21.4686 8.07692 21.1499 7.98367 20.8358 7.87652C20.2995 7.69331 19.7668 7.49852 19.2299 7.3173C18.8635 7.19362 18.483 7.1083 18.1255 6.96411C17.7098 6.79644 17.2817 6.66912 16.8594 6.52428C16.5223 6.40886 16.2476 6.20316 16.0222 5.94356C15.7974 5.68462 15.6177 5.38633 15.4156 5.10722C15.0278 4.57115 14.623 4.04831 14.2376 3.51026C13.7029 2.76353 13.1489 2.0307 12.6028 1.29224C12.4431 1.07662 12.288 0.857035 12.1191 0.648692C11.9949 0.495908 11.9643 0.505498 11.8536 0.66159C11.803 0.733021 11.735 0.792548 11.6899 0.866956C11.4685 1.23172 11.1875 1.55217 10.9447 1.90139C10.7226 2.22085 10.4801 2.52576 10.2491 2.8386C9.9244 3.27877 9.61421 3.73051 9.2751 4.1591C8.89458 4.63994 8.54956 5.1469 8.18547 5.63965C7.88744 6.04311 7.55523 6.3791 7.07679 6.54147C6.63811 6.68996 6.18794 6.80736 5.7555 6.97139C5.00696 7.25546 4.24396 7.4972 3.48852 7.76077C2.8057 7.99921 2.11696 8.22375 1.42921 8.44929C1.2682 8.50221 1.10554 8.55115 0.94913 8.61531C0.889983 8.63945 0.773332 8.67715 0.857452 8.77603C0.9258 8.85639 0.969832 8.94964 1.03095 9.03331C1.38025 9.51118 1.72199 9.99499 2.06439 10.4781C2.39035 10.9378 2.71336 11.3998 3.03966 11.8595C3.31206 12.2438 3.6055 12.6142 3.85556 13.0127C4.09478 13.3936 4.37277 13.7455 4.62185 14.1185C4.84201 14.4482 4.98068 14.7945 4.99283 15.1857C5.01781 15.9833 4.99448 16.781 5.01912 17.5796C5.05527 18.7457 5.01025 19.9137 5.06085 21.0805L5.06217 21.0801Z" fill="#EFB124"/>
<path d="M13.9201 2.32312C13.7828 2.23615 13.6901 2.10354 13.6106 1.97126C13.4259 1.66403 13.1627 1.41965 12.9718 1.11606C12.7891 0.826035 12.567 0.561143 12.3629 0.284345C12.149 -0.00535002 11.849 0.019122 11.6213 0.289967C11.3817 0.574701 11.1856 0.889199 10.9592 1.1822C10.7229 1.48777 10.5031 1.81087 10.2688 2.11875C9.94775 2.54039 9.64544 2.97626 9.31915 3.39493C9.04148 3.75143 8.77926 4.1238 8.5108 4.48922C8.22032 4.88441 7.93937 5.28655 7.6364 5.67281C7.52797 5.81104 7.4307 5.95357 7.29006 6.06336C7.02522 6.27038 6.70221 6.34148 6.39826 6.45326C5.95301 6.61729 5.49954 6.75916 5.04904 6.90765C4.65604 7.03728 4.26337 7.16725 3.86938 7.29358C3.60815 7.37724 3.35677 7.5006 3.09094 7.57566C2.51293 7.73936 1.96484 7.99202 1.38651 8.14976C1.04411 8.24335 0.719129 8.38225 0.381989 8.48873C0.0819809 8.58365 -0.0583296 8.9041 0.20849 9.23546C0.35143 9.41305 0.473339 9.60816 0.605106 9.79501C0.784191 10.049 0.949803 10.3149 1.14762 10.5533C1.3129 10.7524 1.42265 10.9859 1.58597 11.1859C1.78509 11.43 1.96286 11.6936 2.13505 11.9581C2.33089 12.2594 2.54218 12.5504 2.75018 12.8421C2.95555 13.1301 3.156 13.4235 3.3709 13.7056C3.67124 14.1004 3.95646 14.5092 4.21671 14.9315C4.33894 15.1299 4.41288 15.365 4.37805 15.6187C4.34782 15.8376 4.4017 16.0572 4.40269 16.2764C4.40729 17.3178 4.39086 18.3595 4.41255 19.4006C4.42536 20.0114 4.41452 20.6232 4.44574 21.2323C4.46742 21.6563 4.45724 22.0793 4.4694 22.5026C4.47827 22.8194 4.751 23.0099 5.04937 22.9064C5.55935 22.7294 6.07919 22.5833 6.59278 22.4186C7.12544 22.2479 7.66171 22.0882 8.19239 21.9103C8.49568 21.8088 8.80686 21.7307 9.10917 21.6262C9.40754 21.523 9.72036 21.4602 10.0102 21.3468C10.2806 21.2409 10.5586 21.1622 10.8333 21.0882C11.2329 20.98 11.6055 20.7518 12.0462 20.7988C12.2644 20.8223 12.4753 20.8659 12.6846 20.9251C13.0609 21.0316 13.4246 21.1761 13.8038 21.2763C14.0545 21.3425 14.3007 21.4367 14.5501 21.5148C14.8409 21.6054 15.1294 21.6996 15.4245 21.779C15.6676 21.8445 15.9091 21.9377 16.152 22.0171C16.7533 22.2132 17.3487 22.4311 17.9576 22.6005C18.2862 22.6921 18.6023 22.8164 18.9283 22.9113C19.1944 22.989 19.4938 22.7923 19.5191 22.5178C19.5858 21.7922 19.5263 21.0647 19.5523 20.3388C19.6019 18.9459 19.5753 17.5526 19.5858 16.1594C19.5878 15.8965 19.5861 15.6312 19.6226 15.372C19.661 15.0975 19.7872 14.8491 19.9611 14.6312C20.1546 14.3885 20.3031 14.113 20.4898 13.8693C20.6511 13.6586 20.8013 13.4387 20.9567 13.2247C21.0964 13.0326 21.2459 12.8474 21.3819 12.6526C21.6316 12.2945 21.8919 11.9432 22.1268 11.5755C22.3772 11.1836 22.6782 10.8291 22.9224 10.4326C23.0735 10.1872 23.272 9.9716 23.433 9.73184C23.57 9.5278 23.7166 9.3307 23.852 9.126C23.968 8.95106 23.9315 8.76884 23.803 8.60547C23.7728 8.56711 23.7462 8.52544 23.7176 8.48543C23.9098 8.52147 23.945 8.68649 24.0002 8.83465C24.0002 9.01157 23.9384 9.16601 23.8362 9.30755C23.5989 9.63627 23.3624 9.96565 23.1271 10.296C22.9562 10.5361 22.7886 10.7785 22.6184 11.0193C22.3253 11.4343 22.0322 11.8493 21.7371 12.263C21.4322 12.6903 21.1489 13.1334 20.8384 13.5554C20.6035 13.8749 20.3767 14.2016 20.1385 14.5191C20.0123 14.6874 19.8635 14.8571 19.7954 15.0535C19.735 15.2281 19.6663 15.4107 19.6676 15.6091C19.6726 16.248 19.6752 16.8876 19.6597 17.5262C19.6288 18.809 19.6144 20.0917 19.6081 21.3749C19.6072 21.5726 19.5989 21.7704 19.6252 21.9688C19.6591 22.2235 19.5973 22.4735 19.5569 22.7225C19.5293 22.8928 19.2795 23.0284 19.0706 22.9947C18.7535 22.9437 18.4551 22.819 18.1469 22.7347C17.8787 22.6613 17.6205 22.5598 17.352 22.486C17.0701 22.4083 16.7904 22.3091 16.5105 22.2175C15.9456 22.0326 15.384 21.8355 14.8116 21.6771C14.2708 21.5273 13.746 21.3306 13.2091 21.1702C12.8808 21.0719 12.5509 20.9784 12.2223 20.8811C12.06 20.8332 11.8822 20.8196 11.7376 20.8795C11.4491 20.9992 11.1376 21.0299 10.8507 21.1602C10.5849 21.281 10.2895 21.3342 10.0082 21.4212C9.47391 21.5862 8.94027 21.7532 8.40696 21.9215C7.53947 22.1947 6.67033 22.4622 5.80711 22.7483C5.53766 22.8376 5.26394 22.9054 4.99219 22.9827C4.90084 23.0085 4.81935 22.9715 4.73326 22.9784C4.49043 22.9103 4.3879 22.7516 4.3856 22.4377C4.38396 22.2228 4.38495 22.0082 4.3833 21.7932C4.37147 20.3722 4.37016 18.9508 4.34256 17.5301C4.33073 16.9187 4.33171 16.3079 4.32383 15.6964C4.31857 15.2976 4.18187 14.9497 3.9374 14.6388C3.69128 14.3253 3.47704 13.9886 3.24866 13.6626C2.8688 13.1199 2.46562 12.5934 2.09266 12.0461C1.815 11.6387 1.52583 11.2398 1.24423 10.8354C0.870612 10.2987 0.487468 9.76855 0.113198 9.23215C-0.0921751 8.93816 -0.0261272 8.55752 0.377389 8.413C0.911686 8.22153 1.45058 8.04394 1.98455 7.8518C2.25367 7.75524 2.53528 7.6838 2.80769 7.59022C3.40934 7.38386 4.00936 7.17122 4.61168 6.96618C5.10227 6.79918 5.59845 6.64738 6.08675 6.4731C6.45477 6.34182 6.84219 6.2598 7.17867 6.04253C7.4008 5.89934 7.54834 5.68934 7.68964 5.47901C7.84211 5.25182 8.0156 5.04183 8.17563 4.82125C8.42241 4.48129 8.68101 4.15025 8.91464 3.80004C9.03885 3.61385 9.18048 3.43957 9.31487 3.26033C9.47556 3.04637 9.63788 2.8334 9.79857 2.61943C10.0053 2.34429 10.2129 2.07047 10.4167 1.79334C10.7594 1.32672 11.0985 0.857121 11.4415 0.3905C11.5125 0.293935 11.5888 0.199685 11.6726 0.114364C11.8451 -0.0612387 12.2045 -0.0271764 12.3619 0.165623C12.4796 0.309809 12.5653 0.479129 12.7053 0.605457C12.7149 0.690447 12.7894 0.730793 12.8338 0.791642C13.1391 1.2113 13.448 1.62832 13.7512 2.0493C13.8134 2.13562 13.9208 2.1958 13.9205 2.3218L13.9201 2.32312Z" fill="#F4C445"/>
<path d="M18.0716 6.56687C18.2146 6.54703 18.3269 6.64392 18.459 6.67005C18.5954 6.69683 18.7265 6.7514 18.8596 6.79406C19.1941 6.91179 19.5286 7.02853 19.8625 7.14758C20.0018 7.19752 20.1447 7.23026 20.2906 7.25407C20.3067 7.26465 20.3225 7.27556 20.3383 7.28614C20.5946 7.42173 20.8772 7.48953 21.1483 7.58245C21.6638 7.75938 22.1824 7.92771 22.696 8.11092C22.6969 8.12183 22.6966 8.13241 22.6946 8.14299C22.3966 8.11687 22.1334 7.97202 21.8511 7.89397C21.373 7.76202 20.9199 7.55633 20.4388 7.42802C20.1901 7.36188 19.945 7.25473 19.7005 7.16114C19.4514 7.0659 19.1928 6.99678 18.9394 6.91245C18.6766 6.82448 18.415 6.73222 18.1531 6.64094C18.1166 6.62805 18.0821 6.61019 18.0716 6.56687Z" fill="#F4C445"/>
<path d="M23.6541 8.47629C23.6347 8.48357 23.6081 8.50275 23.5966 8.49581C23.3492 8.35294 23.0604 8.33079 22.8021 8.21967C22.7712 8.20644 22.7459 8.18759 22.7344 8.15386C22.9831 8.14625 23.1879 8.28746 23.412 8.36187C23.4941 8.38899 23.6025 8.37741 23.6541 8.47596V8.47629Z" fill="#F4C445"/>
<path d="M20.3383 7.28623C20.3225 7.27565 20.3064 7.26506 20.2906 7.25415C20.3064 7.26473 20.3225 7.27532 20.3383 7.28623Z" fill="#BBCECF"/>
<path d="M22.6946 8.14341C22.6966 8.13282 22.6969 8.12191 22.696 8.11133C22.7098 8.11993 22.7236 8.12852 22.7374 8.13745C22.7232 8.13944 22.7088 8.14142 22.6946 8.14374V8.14341Z" fill="#BBCECF"/>
<path d="M23.7034 8.47629H23.7061L23.7067 8.46814L23.7034 8.47629Z" fill="#F4C445"/>
<path d="M5.06217 21.0801C5.01156 19.9134 5.05625 18.7454 5.02044 17.5793C4.99579 16.781 5.01912 15.983 4.99415 15.1854C4.98199 14.7941 4.84299 14.4479 4.62316 14.1182C4.37409 13.7451 4.09609 13.3933 3.85688 13.0123C3.60682 12.6141 3.31338 12.2434 3.04097 11.8592C2.71501 11.3995 2.392 10.9375 2.0657 10.4778C1.7233 9.99465 1.38156 9.51117 1.03226 9.03297C0.971146 8.94931 0.927114 8.85638 0.858766 8.77569C0.774645 8.67681 0.891297 8.63911 0.950444 8.61496C1.10686 8.55081 1.26951 8.50187 1.43052 8.44895C2.11827 8.22341 2.80701 7.99887 3.48983 7.76043C4.24495 7.49686 5.00795 7.25512 5.75682 6.97104C6.18958 6.80702 6.63943 6.68962 7.0781 6.54113C7.55654 6.37909 7.88842 6.04309 8.18679 5.63931C8.55087 5.14656 8.8959 4.6396 9.27641 4.15875C9.61552 3.73016 9.92539 3.27843 10.2504 2.83826C10.4814 2.52509 10.7239 2.22018 10.946 1.90105C11.1888 1.55183 11.4698 1.23138 11.6913 0.866615C11.7363 0.792538 11.8043 0.732681 11.8549 0.661249C11.9656 0.505157 11.9962 0.495567 12.1204 0.648351C12.2893 0.856363 12.4444 1.07595 12.6041 1.2919C13.1502 2.03036 13.7042 2.76319 14.2389 3.50992C14.624 4.04797 15.0291 4.57081 15.4169 5.10688C15.619 5.38599 15.7987 5.68428 16.0235 5.94322C16.2489 6.20249 16.5236 6.40852 16.8607 6.52394C17.2833 6.66845 17.7111 6.7961 18.1268 6.96377C18.4843 7.10796 18.8648 7.19361 19.2312 7.31696C19.7682 7.49818 20.3008 7.69297 20.8371 7.87618C21.1512 7.98332 21.47 8.07658 21.7851 8.18108C22.0443 8.26707 22.301 8.36132 22.5596 8.44994C22.714 8.50286 22.8688 8.55577 23.0259 8.60074C23.1412 8.63382 23.1875 8.67581 23.1064 8.79487C22.7203 9.36103 22.3355 9.92818 21.9247 10.4771C21.7581 10.6997 21.609 10.9355 21.4489 11.1634C21.1979 11.5208 20.9445 11.8763 20.6925 12.2328C20.3734 12.6839 20.0524 13.1333 19.7363 13.5864C19.546 13.8592 19.3515 14.1288 19.1879 14.4201C19.0423 14.679 19.0249 14.9631 18.9953 15.2462C18.9861 15.3335 18.996 15.4225 18.9933 15.5104C18.9546 16.8921 18.9822 18.2748 18.9506 19.6561C18.9348 20.3496 18.9408 21.0427 18.9296 21.7359C18.9273 21.8893 18.8734 21.9158 18.7397 21.8728C18.2264 21.7081 17.7111 21.5487 17.1969 21.3867C16.6557 21.2164 16.1152 21.0444 15.5733 20.8751C14.8287 20.6426 14.0841 20.4095 13.3379 20.1826C13.0668 20.1002 12.8055 19.9914 12.5315 19.9157C12.1319 19.8056 11.7399 19.833 11.3531 19.9481C10.7725 20.1211 10.1965 20.3099 9.61914 20.4938C8.83544 20.7438 8.05601 21.009 7.26738 21.2422C6.70252 21.4092 6.15475 21.6321 5.57839 21.7617C5.45747 21.7888 5.34443 21.8516 5.22482 21.8867C5.12131 21.9171 5.05855 21.8847 5.06184 21.7574C5.06808 21.5315 5.06348 21.3057 5.06348 21.0798L5.06217 21.0801ZM2.21948 9.05083C2.25924 9.05711 2.2852 9.06505 2.3105 9.06439C2.86254 9.05215 3.41393 9.07299 3.96663 9.04256C4.6041 9.00751 5.23994 8.96452 5.87577 8.90598C6.54315 8.84447 7.20429 8.74196 7.86542 8.63944C8.30147 8.57164 8.73883 8.50947 9.1706 8.41258C9.29284 8.38513 9.36908 8.3385 9.41771 8.23003C9.54717 7.94066 9.69833 7.66122 9.84193 7.37946C10.1538 6.76733 10.438 6.14297 10.7232 5.51827C10.8846 5.16508 11.0245 4.80395 11.1652 4.44217C11.294 4.1108 11.4336 3.78242 11.5454 3.44543C11.6538 3.11837 11.7609 2.79064 11.8723 2.46457C11.9141 2.34287 11.9436 2.21753 11.9489 2.08195C11.8454 2.09716 11.7971 2.1676 11.7488 2.23142C11.3867 2.7116 11.0065 3.1769 10.6611 3.67097C10.345 4.12304 10.0368 4.58073 9.74499 5.04735C9.3418 5.69189 8.9787 6.36156 8.58998 7.01536C8.54561 7.08977 8.53411 7.20121 8.40629 7.22172C8.07211 7.27496 7.74713 7.37582 7.41524 7.43767C6.6046 7.58946 5.81104 7.81004 5.01584 8.02367C4.64879 8.12222 4.28668 8.24359 3.9249 8.36396C3.43693 8.52634 2.95324 8.69599 2.48302 8.904C2.39725 8.94203 2.27962 8.9202 2.21981 9.05149L2.21948 9.05083ZM6.10086 20.5606C6.14029 20.4141 6.19057 20.2861 6.207 20.1538C6.24511 19.8489 6.30656 19.5486 6.36012 19.2467C6.40415 18.9987 6.4564 18.752 6.50142 18.5046C6.5977 17.9765 6.66966 17.4441 6.77054 16.9162C6.91972 16.1361 7.05247 15.353 7.19278 14.5712C7.22104 14.4145 7.11294 14.3963 7.00516 14.3927C6.68346 14.3827 6.36275 14.3642 6.04336 14.3272C5.94149 14.3153 5.89023 14.3573 5.89483 14.4677C5.92506 15.1969 5.95463 15.9261 5.98158 16.6557C5.99867 17.117 5.99932 17.5793 6.0036 18.04C6.0105 18.8353 6.08772 19.6293 6.04993 20.4253C6.04828 20.4627 6.04368 20.503 6.10053 20.5606H6.10086Z" fill="#F4C445"/>
<path d="M15.1103 3.9216C15.3232 4.10381 15.4527 4.3525 15.6186 4.57176C15.8556 4.8846 16.0862 5.20207 16.3202 5.51723C16.3527 5.56089 16.3918 5.6009 16.3879 5.66142C16.3258 5.66406 16.2903 5.63099 16.2574 5.58007C15.9292 5.06847 15.5523 4.59292 15.1747 4.11836C15.1248 4.05586 15.1142 3.9927 15.1103 3.92126V3.9216Z" fill="#F4C445"/>
<path d="M13.9293 2.33163C14.0841 2.41893 14.1465 2.58726 14.2507 2.71657C14.5198 3.05058 14.7663 3.4031 15.0239 3.7467C15.0544 3.78771 15.0843 3.82442 15.0699 3.87932C14.8852 3.793 14.8008 3.60682 14.6969 3.45569C14.4653 3.11936 14.2149 2.79726 13.9789 2.46424C13.9477 2.42026 13.9316 2.3809 13.9293 2.3313V2.33163Z" fill="#F4C445"/>
<path d="M16.3991 5.6925C16.5144 5.71698 16.5486 5.83272 16.6196 5.90382C16.8295 6.11481 17.094 6.20807 17.3625 6.30034C17.5488 6.36449 17.7341 6.4303 17.9201 6.49512C17.9481 6.50471 17.9665 6.52257 17.9753 6.55068C17.6638 6.48024 17.3655 6.3678 17.0625 6.26925C16.8289 6.19319 16.6544 6.05198 16.496 5.87604C16.448 5.8228 16.4023 5.76923 16.3994 5.6925H16.3991Z" fill="#F4C445"/>
<path d="M15.0807 3.89111C15.0873 3.89773 15.0935 3.90401 15.0998 3.91062C15.0926 3.90467 15.0863 3.89839 15.0807 3.89111Z" fill="#F4C445"/>
<path d="M2.21948 9.05085C2.27929 8.91956 2.39692 8.94138 2.48269 8.90335C2.95291 8.69534 3.4366 8.52569 3.92457 8.36332C4.28635 8.24294 4.64847 8.12157 5.01551 8.02302C5.81038 7.80939 6.60394 7.58914 7.41492 7.43702C7.74647 7.37485 8.07178 7.27398 8.40596 7.22107C8.53411 7.20057 8.54561 7.08945 8.58965 7.01471C8.97837 6.36092 9.3418 5.69124 9.74466 5.0467C10.0365 4.58008 10.345 4.12239 10.6608 3.67032C11.0058 3.17625 11.3863 2.71096 11.7484 2.23078C11.7967 2.16662 11.8454 2.09618 11.9486 2.0813C11.9433 2.21722 11.9134 2.34222 11.872 2.46392C11.7606 2.78999 11.6535 3.11772 11.545 3.44478C11.433 3.78177 11.2937 4.11016 11.1649 4.44152C11.0242 4.80331 10.8842 5.16443 10.7229 5.51762C10.438 6.14232 10.1534 6.76669 9.8416 7.37882C9.698 7.66057 9.54685 7.94002 9.41738 8.22938C9.36875 8.33785 9.29251 8.38448 9.17028 8.41193C8.7385 8.50883 8.30114 8.571 7.86509 8.63879C7.20396 8.74131 6.54282 8.84383 5.87544 8.90534C5.23961 8.96387 4.60378 9.00719 3.9663 9.04192C3.4136 9.07234 2.86189 9.05151 2.31018 9.06374C2.28455 9.0644 2.25891 9.05647 2.21915 9.05018L2.21948 9.05085Z" fill="#FCE09C"/>
<path d="M6.10085 20.5606C6.04401 20.503 6.04828 20.463 6.05025 20.4253C6.08804 19.6293 6.01082 18.8353 6.00392 18.04C5.99997 17.5793 5.99899 17.117 5.9819 16.6557C5.95496 15.9265 5.92538 15.1969 5.89515 14.4677C5.89055 14.3573 5.94181 14.3156 6.04368 14.3272C6.3634 14.3642 6.68411 14.3827 7.00548 14.3927C7.11359 14.396 7.22137 14.4142 7.19311 14.5712C7.0528 15.353 6.92004 16.1361 6.77086 16.9163C6.66998 17.4441 6.59802 17.9765 6.50174 18.5046C6.45672 18.752 6.40448 18.9987 6.36044 19.2467C6.30688 19.5486 6.24543 19.8489 6.20732 20.1538C6.19089 20.2861 6.14028 20.4141 6.10118 20.5606H6.10085Z" fill="#FCE09C"/>
</svg>
