<svg width="24" height="24" viewBox="0 0 24 24" fill="none" xmlns="http://www.w3.org/2000/svg">
<g clip-path="url(#clip0_37_2)">
<path d="M3.46001 9.68999C2.25001 10.07 1.18001 9.78999 0.320007 8.84999C1.53001 8.45999 2.60001 8.74999 3.46001 9.68999Z" fill="#EDCC85"/>
<path d="M3.25 11.87C2.18 12.55 1.07 12.56 0 11.87C1.07 11.18 2.18 11.19 3.25 11.87Z" fill="#EDCC85"/>
<path d="M3.60001 14.02C2.75001 14.96 1.67001 15.25 0.460007 14.86C1.31001 13.92 2.39001 13.63 3.60001 14.02Z" fill="#EDCC85"/>
<path d="M4.5 16.01C3.92 17.14 2.96 17.7 1.69 17.63C2.27 16.5 3.24 15.95 4.5 16.01Z" fill="#EDCC85"/>
<path d="M5.88 17.7C5.61 18.94 4.83 19.73 3.59 20C3.86 18.76 4.65 17.97 5.88 17.7Z" fill="#EDCC85"/>
<path d="M7.65 18.97C7.71 20.24 7.16 21.2 6.03 21.78C5.97 20.51 6.53 19.55 7.65 18.97Z" fill="#EDCC85"/>
<path d="M9.69 19.75C10.07 20.96 9.79001 22.03 8.85001 22.89C8.46001 21.68 8.75 20.61 9.69 19.75Z" fill="#EDCC85"/>
<path d="M11.87 19.96C12.55 21.03 12.56 22.14 11.87 23.21C11.18 22.14 11.19 21.03 11.87 19.96Z" fill="#EDCC85"/>
<path d="M14.02 19.61C14.96 20.46 15.25 21.54 14.86 22.75C13.92 21.9 13.63 20.82 14.02 19.61Z" fill="#EDCC85"/>
<path d="M16.01 18.71C17.14 19.29 17.7 20.25 17.63 21.52C16.5 20.94 15.95 19.97 16.01 18.71Z" fill="#EDCC85"/>
<path d="M17.7 17.33C18.94 17.6 19.73 18.38 20 19.62C18.76 19.35 17.97 18.56 17.7 17.33Z" fill="#EDCC85"/>
<path d="M18.97 15.56C20.24 15.5 21.2 16.05 21.78 17.18C20.51 17.24 19.55 16.68 18.97 15.56Z" fill="#EDCC85"/>
<path d="M19.75 13.52C20.96 13.14 22.03 13.42 22.89 14.36C21.68 14.75 20.61 14.46 19.75 13.52Z" fill="#EDCC85"/>
<path d="M19.96 11.3401C21.03 10.6601 22.14 10.6501 23.21 11.3401C22.14 12.0301 21.03 12.0201 19.96 11.3401Z" fill="#EDCC85"/>
<path d="M19.61 9.18999C20.46 8.24999 21.54 7.95999 22.75 8.34999C21.9 9.28999 20.82 9.57999 19.61 9.18999Z" fill="#EDCC85"/>
<path d="M18.71 7.19994C19.29 6.06994 20.25 5.50994 21.52 5.57994C20.94 6.70994 19.97 7.25994 18.71 7.19994Z" fill="#EDCC85"/>
<path d="M17.33 5.50996C17.6 4.26996 18.38 3.47996 19.62 3.20996C19.35 4.44996 18.56 5.23996 17.33 5.50996Z" fill="#EDCC85"/>
<path d="M15.56 4.24005C15.5 2.97005 16.05 2.01005 17.18 1.43005C17.24 2.70005 16.68 3.66005 15.56 4.24005Z" fill="#EDCC85"/>
<path d="M13.52 3.45995C13.14 2.24995 13.42 1.17995 14.36 0.319946C14.75 1.52995 14.46 2.59995 13.52 3.45995Z" fill="#EDCC85"/>
<path d="M11.34 3.25C10.66 2.18 10.65 1.07 11.34 0C12.03 1.07 12.02 2.18 11.34 3.25Z" fill="#EDCC85"/>
<path d="M9.19 3.59996C8.25 2.74996 7.96001 1.66996 8.35001 0.459961C9.29001 1.30996 9.58 2.38996 9.19 3.59996Z" fill="#EDCC85"/>
<path d="M7.2 4.49994C6.07 3.91994 5.51 2.95994 5.58 1.68994C6.71 2.26994 7.26 3.23994 7.2 4.49994Z" fill="#EDCC85"/>
<path d="M5.51001 5.87997C4.27001 5.60997 3.48001 4.82997 3.21001 3.58997C4.45001 3.85997 5.24001 4.64997 5.51001 5.87997Z" fill="#EDCC85"/>
<path d="M4.23999 7.65C2.96999 7.71 2.00999 7.16 1.42999 6.03C2.69999 5.97 3.65999 6.53 4.23999 7.65Z" fill="#EDCC85"/>
</g>
<defs>
<clipPath id="clip0_37_2">
<rect width="23.21" height="23.21" fill="white"/>
</clipPath>
</defs>
</svg>
